<svg width="40" height="40" viewBox="0 0 40 40" fill="none" xmlns="http://www.w3.org/2000/svg">
<path fill-rule="evenodd" clip-rule="evenodd" d="M21.4622 5.00442C21.4632 4.96673 21.4637 4.92892 21.4637 4.89099C21.4637 2.60398 19.5989 0.75 17.2985 0.75C15.6429 0.75 14.2129 1.71033 13.5413 3.10126C13.0363 2.88492 12.4796 2.76507 11.8947 2.76507C9.59432 2.76507 7.72949 4.61906 7.72949 6.90606C7.72949 7.17515 7.75531 7.43825 7.80462 7.69304C7.74246 7.6903 7.67995 7.68891 7.61711 7.68891C5.31673 7.68891 3.4519 9.5429 3.4519 11.8299C3.4519 12.8026 3.78926 13.697 4.354 14.4037C2.23768 15.2804 0.75 17.3566 0.75 19.7782C0.75 22.2525 2.30316 24.3662 4.49309 25.2081C3.84509 25.9381 3.4519 26.8969 3.4519 27.9471C3.4519 30.2341 5.31673 32.0881 7.61711 32.0881C7.66743 32.0881 7.71754 32.0872 7.76743 32.0854C7.74242 32.2689 7.72949 32.4563 7.72949 32.6466C7.72949 34.9336 9.59432 36.7876 11.8947 36.7876C12.4178 36.7876 12.9184 36.6917 13.3797 36.5167C13.9588 38.1114 15.4948 39.2513 17.2985 39.2513C19.4851 39.2513 21.2782 37.5761 21.4502 35.4463H21.4622V35.2212C21.4632 35.1844 21.4637 35.1474 21.4637 35.1103C21.4637 35.0732 21.4632 35.0362 21.4622 34.9993V26.0417H25.0344C25.4524 26.0417 25.8533 26.2067 26.1488 26.5006L28.9155 29.2512C28.615 29.7531 28.4424 30.3396 28.4424 30.9661C28.4424 32.8204 29.9544 34.3237 31.8196 34.3237C33.6847 34.3237 35.1968 32.8204 35.1968 30.9661C35.1968 29.1118 33.6847 27.6086 31.8196 27.6086C31.0736 27.6086 30.3841 27.849 29.8252 28.2563L27.104 25.5509C26.5551 25.0052 25.8107 24.6986 25.0344 24.6986H21.4622V20.6696H32.5632C32.8751 22.2033 34.2386 23.358 35.8733 23.358C37.7385 23.358 39.2505 21.8548 39.2505 20.0005C39.2505 18.1461 37.7385 16.6429 35.8733 16.6429C34.2403 16.6429 32.878 17.7952 32.5641 19.3266H21.4622V15.1856H25.147C25.9232 15.1856 26.6677 14.879 27.2166 14.3333L29.8244 11.7407C30.3834 12.1483 31.0732 12.389 31.8196 12.389C33.6847 12.389 35.1968 10.8857 35.1968 9.0314C35.1968 7.17707 33.6847 5.67384 31.8196 5.67384C29.9544 5.67384 28.4424 7.17707 28.4424 9.0314C28.4424 9.65757 28.6148 10.2437 28.915 10.7454L26.2614 13.3836C25.9658 13.6775 25.565 13.8425 25.147 13.8425H21.4622V5.00442H21.4622Z" fill="#8AB4F8"/>
</svg>
