<svg width="22" height="22" viewBox="0 0 22 22" fill="none" xmlns="http://www.w3.org/2000/svg">
<path fill-rule="evenodd" clip-rule="evenodd" d="M11.8355 2.4311C11.8361 2.40956 11.8364 2.38795 11.8364 2.36628C11.8364 1.05942 10.7708 0 9.45629 0C8.51023 0 7.69309 0.548759 7.30934 1.34358C7.02073 1.21995 6.70261 1.15147 6.3684 1.15147C5.0539 1.15147 3.98828 2.21089 3.98828 3.51775C3.98828 3.67152 4.00303 3.82186 4.03121 3.96745C3.99569 3.96588 3.95997 3.96509 3.92406 3.96509C2.60956 3.96509 1.54395 5.02451 1.54395 6.33137C1.54395 6.88722 1.73672 7.3983 2.05943 7.80214C0.850107 8.30309 0 9.48946 0 10.8732C0 12.2871 0.88752 13.495 2.13891 13.9761C1.76862 14.3932 1.54395 14.9411 1.54395 15.5412C1.54395 16.848 2.60956 17.9075 3.92406 17.9075C3.95282 17.9075 3.98145 17.907 4.00996 17.906C3.99567 18.0108 3.98828 18.1179 3.98828 18.2267C3.98828 19.5335 5.0539 20.5929 6.3684 20.5929C6.66733 20.5929 6.95339 20.5381 7.21697 20.4381C7.54791 21.3494 8.42559 22.0007 9.45629 22.0007C10.7058 22.0007 11.7304 21.0435 11.8287 19.8264H11.8356V19.6978C11.8361 19.6768 11.8364 19.6556 11.8364 19.6344C11.8364 19.6132 11.8361 19.5921 11.8356 19.5711V14.4524H13.8768C14.1156 14.4524 14.3447 14.5467 14.5136 14.7146L16.0946 16.2864C15.9229 16.5732 15.8242 16.9083 15.8242 17.2664C15.8242 18.326 16.6882 19.185 17.754 19.185C18.8199 19.185 19.6839 18.326 19.6839 17.2664C19.6839 16.2067 18.8199 15.3477 17.754 15.3477C17.3278 15.3477 16.9337 15.4852 16.6144 15.7179L15.0594 14.172C14.7458 13.8601 14.3204 13.6849 13.8768 13.6849H11.8356V11.3826H18.1789C18.3572 12.259 19.1363 12.9189 20.0704 12.9189C21.1363 12.9189 22.0003 12.0599 22.0003 11.0003C22.0003 9.94065 21.1363 9.08166 20.0704 9.08166C19.1373 9.08166 18.3588 9.74011 18.1795 10.6152H11.8356V8.24889H13.9411C14.3847 8.24889 14.8101 8.07371 15.1238 7.76187L16.6139 6.28038C16.9334 6.51329 17.3275 6.65083 17.754 6.65083C18.8199 6.65083 19.6839 5.79184 19.6839 4.73223C19.6839 3.67261 18.8199 2.81362 17.754 2.81362C16.6882 2.81362 15.8242 3.67261 15.8242 4.73223C15.8242 5.09004 15.9227 5.42497 16.0943 5.71168L14.5779 7.21921C14.409 7.38712 14.18 7.48145 13.9411 7.48145H11.8356V2.4311H11.8355Z" fill="black"/>
</svg>
