<svg width="24" height="24" viewBox="0 0 24 24" fill="none" xmlns="http://www.w3.org/2000/svg">
<path fill-rule="evenodd" clip-rule="evenodd" d="M14.2439 2.14633C14.2439 3.16385 13.5358 4.016 12.5855 4.23694V4.68291L12.5854 4.70504C12.5973 5.50305 13.2479 6.14631 14.0487 6.14631H15.9999C17.3469 6.14631 18.4389 7.23829 18.4389 8.58532V9.02641C19.4979 9.25082 20.2926 10.1911 20.2926 11.317C20.2926 12.4427 19.4981 13.3829 18.4393 13.6075V13.7855C18.455 14.5263 19.0603 15.1219 19.8048 15.1219C21.098 15.1219 22.1463 16.1702 22.1463 17.4634V18.5873C23.2053 18.8117 24 19.752 24 20.8779C24 22.171 22.9517 23.2193 21.6585 23.2193C20.3654 23.2193 19.3171 22.171 19.3171 20.8779C19.3171 19.752 20.1117 18.8118 21.1707 18.5873V17.4634C21.1707 16.709 20.5592 16.0975 19.8048 16.0975C19.1226 16.0975 18.5085 15.8057 18.0805 15.3401C17.7432 15.7994 17.1992 16.0975 16.5857 16.0975C16.1007 16.0975 15.7076 16.4906 15.7076 16.9756V18.5874C16.7664 18.8121 17.5607 19.7522 17.5607 20.8779C17.5607 22.171 16.5124 23.2193 15.2193 23.2193C13.9261 23.2193 12.8778 22.171 12.8778 20.8779C12.8778 19.7518 13.6727 18.8114 14.732 18.5872V16.9756C14.732 15.9518 15.5619 15.1219 16.5857 15.1219C17.0706 15.1219 17.4637 14.7288 17.4637 14.2439V13.7946C17.4635 13.7818 17.4634 13.769 17.4634 13.7561V13.6585H17.4633V13.6075C16.4043 13.3831 15.6097 12.4428 15.6097 11.317C15.6097 10.1911 16.4043 9.25085 17.4633 9.02642V8.58532C17.4633 7.7771 16.8081 7.12192 15.9999 7.12192H14.0487C13.2509 7.12192 12.5426 6.7389 12.0976 6.14672C11.6526 6.7389 10.9443 7.12192 10.1465 7.12192H8.19533C7.38711 7.12192 6.73192 7.7771 6.73192 8.58532V9.02642C7.79091 9.25086 8.58552 10.1911 8.58552 11.317C8.58552 12.4428 7.79091 13.3831 6.73192 13.6075V13.6585H6.73185V14.2439C6.73185 14.7288 7.12497 15.1219 7.6099 15.1219C8.63364 15.1219 9.46354 15.9518 9.46354 16.9756V18.6376C10.4236 18.9298 11.1221 19.8223 11.1221 20.8779C11.1221 22.171 10.0738 23.2193 8.78069 23.2193C7.48755 23.2193 6.43924 22.171 6.43924 20.8779C6.43924 19.6839 7.33296 18.6986 8.48794 18.5546V16.9756C8.48794 16.4906 8.09483 16.0975 7.6099 16.0975C6.98144 16.0975 6.42603 15.7848 6.09082 15.3064C5.64495 15.7927 5.00443 16.0975 4.2927 16.0975C3.48449 16.0975 2.8293 16.7527 2.8293 17.5609V18.5873C3.88829 18.8118 4.68289 19.752 4.68289 20.8779C4.68289 22.171 3.63459 23.2193 2.34145 23.2193C1.0483 23.2193 0 22.171 0 20.8779C0 19.752 0.794657 18.8117 1.85369 18.5873V17.5609C1.85369 16.2139 2.94567 15.1219 4.2927 15.1219C5.10092 15.1219 5.75611 14.4667 5.75611 13.6585V13.6075C4.69718 13.383 3.90263 12.4428 3.90263 11.317C3.90263 10.1911 4.69728 9.2508 5.75632 9.0264V8.58532C5.75632 7.23829 6.8483 6.14631 8.19533 6.14631H10.1465C10.9474 6.14631 11.5979 5.50305 11.6098 4.70504L11.6097 4.68291V4.23696C10.6593 4.01607 9.95122 3.16389 9.95122 2.14633C9.95122 0.960943 10.9122 0 12.0976 0C13.2829 0 14.2439 0.960943 14.2439 2.14633Z" fill="black"/>
</svg>
