<svg width="42" height="41" viewBox="0 0 42 41" fill="none" xmlns="http://www.w3.org/2000/svg">
<path fill-rule="evenodd" clip-rule="evenodd" d="M24.9268 3.75607C24.9268 5.53674 23.6877 7.02799 22.0247 7.41464V8.19509L22.0245 8.23385C22.0452 9.63035 23.1838 10.756 24.5852 10.756H27.9998C30.3571 10.756 32.2681 12.667 32.2681 15.0243V15.7962C34.1214 16.1889 35.512 17.8344 35.512 19.8047C35.512 21.7747 34.1217 23.4201 32.2688 23.813V24.1247C32.2962 25.421 33.3556 26.4634 34.6585 26.4634C36.9215 26.4634 38.756 28.2979 38.756 30.5609V32.5278C40.6093 32.9205 41.9999 34.566 41.9999 36.5363C41.9999 38.7993 40.1654 40.6338 37.9024 40.6338C35.6394 40.6338 33.8049 38.7993 33.8049 36.5363C33.8049 34.566 35.1954 32.9206 37.0487 32.5278V30.5609C37.0487 29.2408 35.9786 28.1707 34.6585 28.1707C33.4645 28.1707 32.3899 27.66 31.641 26.8452C31.0505 27.649 30.0987 28.1707 29.0249 28.1707C28.1763 28.1707 27.4883 28.8586 27.4883 29.7072V32.528C29.3411 32.9211 30.7312 34.5664 30.7312 36.5363C30.7312 38.7993 28.8967 40.6338 26.6337 40.6338C24.3707 40.6338 22.5362 38.7993 22.5362 36.5363C22.5362 34.5657 23.9273 32.92 25.781 32.5276V29.7072C25.781 27.9157 27.2334 26.4634 29.0249 26.4634C29.8735 26.4634 30.5615 25.7754 30.5615 24.9268V24.1406C30.5611 24.1181 30.5609 24.0957 30.5609 24.0731V23.9023H30.5608V23.8132C28.7075 23.4204 27.3169 21.775 27.3169 19.8047C27.3169 17.8344 28.7075 16.189 30.5608 15.7962V15.0243C30.5608 13.6099 29.4142 12.4634 27.9998 12.4634H24.5852C23.1891 12.4634 21.9496 11.7931 21.1708 10.7568C20.3921 11.7931 19.1525 12.4634 17.7564 12.4634H14.3418C12.9274 12.4634 11.7809 13.6099 11.7809 15.0243V15.7962C13.6341 16.189 15.0247 17.8345 15.0247 19.8047C15.0247 21.7749 13.6341 23.4204 11.7809 23.8132V23.9023H11.7807V24.9268C11.7807 25.7754 12.4687 26.4634 13.3173 26.4634C15.1089 26.4634 16.5612 27.9157 16.5612 29.7072V32.6158C18.2413 33.1272 19.4637 34.689 19.4637 36.5363C19.4637 38.7993 17.6292 40.6338 15.3662 40.6338C13.1032 40.6338 11.2687 38.7993 11.2687 36.5363C11.2687 34.4468 12.8327 32.7226 14.8539 32.4705V29.7072C14.8539 28.8586 14.1659 28.1707 13.3173 28.1707C12.2175 28.1707 11.2456 27.6234 10.6589 26.7862C9.87867 27.6372 8.75775 28.1707 7.51223 28.1707C6.09785 28.1707 4.95127 29.3172 4.95127 30.7316V32.5278C6.8045 32.9206 8.19507 34.5661 8.19507 36.5363C8.19507 38.7993 6.36054 40.6338 4.09753 40.6338C1.83453 40.6338 0 38.7993 0 36.5363C0 34.566 1.39065 32.9205 3.24396 32.5278V30.7316C3.24396 28.3743 5.15493 26.4634 7.51223 26.4634C8.92661 26.4634 10.0732 25.3168 10.0732 23.9024V23.8131C8.22006 23.4203 6.8296 21.7749 6.8296 19.8047C6.8296 17.8344 8.22025 16.1889 10.0736 15.7962V15.0243C10.0736 12.667 11.9845 10.756 14.3418 10.756H17.7564C19.1579 10.756 20.2964 9.63031 20.3171 8.23377L20.3169 8.19509V7.41468C18.6538 7.02812 17.4146 5.53681 17.4146 3.75607C17.4146 1.68165 19.0963 0 21.1707 0C23.2451 0 24.9268 1.68165 24.9268 3.75607Z" fill="#8AB4F8"/>
</svg>
