<svg width="233" height="40" viewBox="0 0 233 40" fill="none" xmlns="http://www.w3.org/2000/svg">
<path d="M2.01405 39.0418C3.12638 39.0418 4.0281 38.1401 4.0281 37.0277C4.0281 35.9154 3.12638 35.0137 2.01405 35.0137C0.901722 35.0137 0 35.9154 0 37.0277C0 38.1401 0.901722 39.0418 2.01405 39.0418Z" fill="#8AB4F8"/>
<path d="M2.91083 33.6322C3.70943 33.6322 4.35682 32.9848 4.35682 32.1862C4.35682 31.3876 3.70943 30.7402 2.91083 30.7402C2.11223 30.7402 1.46484 31.3876 1.46484 32.1862C1.46484 32.9848 2.11223 33.6322 2.91083 33.6322Z" fill="#8AB4F8"/>
<path d="M5.98896 36.1381C6.78755 36.1381 7.43494 35.4907 7.43494 34.6921C7.43494 33.8935 6.78755 33.2461 5.98896 33.2461C5.19036 33.2461 4.54297 33.8935 4.54297 34.6921C4.54297 35.4907 5.19036 36.1381 5.98896 36.1381Z" fill="#8AB4F8"/>
<path d="M5.97333 30.4095C6.77193 30.4095 7.41932 29.7622 7.41932 28.9636C7.41932 28.165 6.77193 27.5176 5.97333 27.5176C5.17473 27.5176 4.52734 28.165 4.52734 28.9636C4.52734 29.7622 5.17473 30.4095 5.97333 30.4095Z" fill="#8AB4F8"/>
<path d="M8.38221 33.3816C8.97515 33.3816 9.45583 32.9009 9.45583 32.308C9.45583 31.7151 8.97515 31.2344 8.38221 31.2344C7.78927 31.2344 7.30859 31.7151 7.30859 32.308C7.30859 32.9009 7.78927 33.3816 8.38221 33.3816Z" fill="#8AB4F8"/>
<path d="M9.09315 30.0965C9.68609 30.0965 10.1668 29.6158 10.1668 29.0228C10.1668 28.4299 9.68609 27.9492 9.09315 27.9492C8.50021 27.9492 8.01953 28.4299 8.01953 29.0228C8.01953 29.6158 8.50021 30.0965 9.09315 30.0965Z" fill="#8AB4F8"/>
<path d="M11.3666 27.3211C11.9595 27.3211 12.4402 26.8404 12.4402 26.2474C12.4402 25.6545 11.9595 25.1738 11.3666 25.1738C10.7736 25.1738 10.293 25.6545 10.293 26.2474C10.293 26.8404 10.7736 27.3211 11.3666 27.3211Z" fill="#8AB4F8"/>
<path d="M9.3119 25.3738C9.90484 25.3738 10.3855 24.8931 10.3855 24.3002C10.3855 23.7072 9.90484 23.2266 9.3119 23.2266C8.71896 23.2266 8.23828 23.7072 8.23828 24.3002C8.23828 24.8931 8.71896 25.3738 9.3119 25.3738Z" fill="#8AB4F8"/>
<path d="M12.6674 24.2879C13.2603 24.2879 13.741 23.8072 13.741 23.2142C13.741 22.6213 13.2603 22.1406 12.6674 22.1406C12.0744 22.1406 11.5938 22.6213 11.5938 23.2142C11.5938 23.8072 12.0744 24.2879 12.6674 24.2879Z" fill="#8AB4F8"/>
<path d="M11.6092 21.5505C12.0881 21.5505 12.4763 21.1623 12.4763 20.6835C12.4763 20.2046 12.0881 19.8164 11.6092 19.8164C11.1304 19.8164 10.7422 20.2046 10.7422 20.6835C10.7422 21.1623 11.1304 21.5505 11.6092 21.5505Z" fill="#8AB4F8"/>
<path d="M14.2147 20.5876C14.6936 20.5876 15.0818 20.1994 15.0818 19.7206C15.0818 19.2417 14.6936 18.8535 14.2147 18.8535C13.7358 18.8535 13.3477 19.2417 13.3477 19.7206C13.3477 20.1994 13.7358 20.5876 14.2147 20.5876Z" fill="#8AB4F8"/>
<path d="M15.7381 17.9841C16.217 17.9841 16.6052 17.5959 16.6052 17.117C16.6052 16.6382 16.217 16.25 15.7381 16.25C15.2593 16.25 14.8711 16.6382 14.8711 17.117C14.8711 17.5959 15.2593 17.9841 15.7381 17.9841Z" fill="#8AB4F8"/>
<path d="M17.2264 20.5407C17.7053 20.5407 18.0935 20.1525 18.0935 19.6737C18.0935 19.1948 17.7053 18.8066 17.2264 18.8066C16.7476 18.8066 16.3594 19.1948 16.3594 19.6737C16.3594 20.1525 16.7476 20.5407 17.2264 20.5407Z" fill="#8AB4F8"/>
<path d="M18.9061 18.8806C19.385 18.8806 19.7732 18.4924 19.7732 18.0135C19.7732 17.5347 19.385 17.1465 18.9061 17.1465C18.4273 17.1465 18.0391 17.5347 18.0391 18.0135C18.0391 18.4924 18.4273 18.8806 18.9061 18.8806Z" fill="#8AB4F8"/>
<path d="M17.4647 15.8571C17.9436 15.8571 18.3318 15.469 18.3318 14.9901C18.3318 14.5112 17.9436 14.123 17.4647 14.123C16.9858 14.123 16.5977 14.5112 16.5977 14.9901C16.5977 15.469 16.9858 15.8571 17.4647 15.8571Z" fill="#8AB4F8"/>
<path d="M20.8866 16.7341C21.3654 16.7341 21.7536 16.3459 21.7536 15.867C21.7536 15.3882 21.3654 15 20.8866 15C20.4077 15 20.0195 15.3882 20.0195 15.867C20.0195 16.3459 20.4077 16.7341 20.8866 16.7341Z" fill="#8AB4F8"/>
<path d="M22.9999 15.6228C23.4787 15.6228 23.8669 15.2346 23.8669 14.7557C23.8669 14.2769 23.4787 13.8887 22.9999 13.8887C22.521 13.8887 22.1328 14.2769 22.1328 14.7557C22.1328 15.2346 22.521 15.6228 22.9999 15.6228Z" fill="#8AB4F8"/>
<path d="M22.5038 12.863C22.9826 12.863 23.3708 12.4748 23.3708 11.996C23.3708 11.5171 22.9826 11.1289 22.5038 11.1289C22.0249 11.1289 21.6367 11.5171 21.6367 11.996C21.6367 12.4748 22.0249 12.863 22.5038 12.863Z" fill="#8AB4F8"/>
<path d="M26.203 12.3513C26.6818 12.3513 27.07 11.9631 27.07 11.4842C27.07 11.0054 26.6818 10.6172 26.203 10.6172C25.7241 10.6172 25.3359 11.0054 25.3359 11.4842C25.3359 11.9631 25.7241 12.3513 26.203 12.3513Z" fill="#8AB4F8"/>
<path d="M29.0624 10.7634C29.5412 10.7634 29.9294 10.3752 29.9294 9.89634C29.9294 9.41749 29.5412 9.0293 29.0624 9.0293C28.5835 9.0293 28.1953 9.41749 28.1953 9.89634C28.1953 10.3752 28.5835 10.7634 29.0624 10.7634Z" fill="#8AB4F8"/>
<path d="M31.3045 11.2517C31.7834 11.2517 32.1716 10.8635 32.1716 10.3846C32.1716 9.90577 31.7834 9.51758 31.3045 9.51758C30.8257 9.51758 30.4375 9.90577 30.4375 10.3846C30.4375 10.8635 30.8257 11.2517 31.3045 11.2517Z" fill="#8AB4F8"/>
<path d="M31.7225 8.63449C32.2014 8.63449 32.5896 8.2463 32.5896 7.76744C32.5896 7.28858 32.2014 6.90039 31.7225 6.90039C31.2437 6.90039 30.8555 7.28858 30.8555 7.76744C30.8555 8.2463 31.2437 8.63449 31.7225 8.63449Z" fill="#8AB4F8"/>
<path d="M33.4862 7.10917C33.854 7.10917 34.1521 6.81103 34.1521 6.44326C34.1521 6.07548 33.854 5.77734 33.4862 5.77734C33.1185 5.77734 32.8203 6.07548 32.8203 6.44326C32.8203 6.81103 33.1185 7.10917 33.4862 7.10917Z" fill="#8AB4F8"/>
<path d="M29.3886 8.21659C29.7563 8.21659 30.0545 7.91845 30.0545 7.55068C30.0545 7.18291 29.7563 6.88477 29.3886 6.88477C29.0208 6.88477 28.7227 7.18291 28.7227 7.55068C28.7227 7.91845 29.0208 8.21659 29.3886 8.21659Z" fill="#8AB4F8"/>
<path d="M33.6815 9.9705C34.0493 9.9705 34.3475 9.67236 34.3475 9.30459C34.3475 8.93681 34.0493 8.63867 33.6815 8.63867C33.3138 8.63867 33.0156 8.93681 33.0156 9.30459C33.0156 9.67236 33.3138 9.9705 33.6815 9.9705Z" fill="#8AB4F8"/>
<path d="M36.2714 9.15995C36.6392 9.15995 36.9373 8.86181 36.9373 8.49404C36.9373 8.12627 36.6392 7.82812 36.2714 7.82812C35.9036 7.82812 35.6055 8.12627 35.6055 8.49404C35.6055 8.86181 35.9036 9.15995 36.2714 9.15995Z" fill="#8AB4F8"/>
<path d="M35.5136 7.3787C35.8813 7.3787 36.1795 7.08056 36.1795 6.71279C36.1795 6.34502 35.8813 6.04688 35.5136 6.04688C35.1458 6.04688 34.8477 6.34502 34.8477 6.71279C34.8477 7.08056 35.1458 7.3787 35.5136 7.3787Z" fill="#8AB4F8"/>
<path d="M37.2245 6.22636C37.5923 6.22636 37.8904 5.92822 37.8904 5.56045C37.8904 5.19267 37.5923 4.89453 37.2245 4.89453C36.8567 4.89453 36.5586 5.19267 36.5586 5.56045C36.5586 5.92822 36.8567 6.22636 37.2245 6.22636Z" fill="#8AB4F8"/>
<path d="M38.455 8.07206C38.8228 8.07206 39.1209 7.77392 39.1209 7.40615C39.1209 7.03837 38.8228 6.74023 38.455 6.74023C38.0872 6.74023 37.7891 7.03837 37.7891 7.40615C37.7891 7.77392 38.0872 8.07206 38.455 8.07206Z" fill="#8AB4F8"/>
<path d="M38.993 5.94889C39.3127 5.94889 39.5719 5.68969 39.5719 5.36995C39.5719 5.05022 39.3127 4.79102 38.993 4.79102C38.6733 4.79102 38.4141 5.05022 38.4141 5.36995C38.4141 5.68969 38.6733 5.94889 38.993 5.94889Z" fill="#8AB4F8"/>
<path d="M40.3797 6.94498C40.6995 6.94498 40.9587 6.68579 40.9587 6.36605C40.9587 6.04631 40.6995 5.78711 40.3797 5.78711C40.06 5.78711 39.8008 6.04631 39.8008 6.36605C39.8008 6.68579 40.06 6.94498 40.3797 6.94498Z" fill="#8AB4F8"/>
<path d="M40.7117 5.23209C41.0315 5.23209 41.2907 4.9729 41.2907 4.65316C41.2907 4.33342 41.0315 4.07422 40.7117 4.07422C40.392 4.07422 40.1328 4.33342 40.1328 4.65316C40.1328 4.9729 40.392 5.23209 40.7117 5.23209Z" fill="#8AB4F8"/>
<path d="M42.3969 6.72536C42.6851 6.72536 42.9187 6.49172 42.9187 6.2035C42.9187 5.91529 42.6851 5.68164 42.3969 5.68164C42.1086 5.68164 41.875 5.91529 41.875 6.2035C41.875 6.49172 42.1086 6.72536 42.3969 6.72536Z" fill="#8AB4F8"/>
<path d="M42.3578 4.70583C42.646 4.70583 42.8797 4.47218 42.8797 4.18397C42.8797 3.89575 42.646 3.66211 42.3578 3.66211C42.0696 3.66211 41.8359 3.89575 41.8359 4.18397C41.8359 4.47218 42.0696 4.70583 42.3578 4.70583Z" fill="#8AB4F8"/>
<path d="M43.5648 5.58864C43.853 5.58864 44.0867 5.355 44.0867 5.06678C44.0867 4.77857 43.853 4.54492 43.5648 4.54492C43.2766 4.54492 43.043 4.77857 43.043 5.06678C43.043 5.355 43.2766 5.58864 43.5648 5.58864Z" fill="#8AB4F8"/>
<path d="M43.8187 3.97731C44.1069 3.97731 44.3406 3.74367 44.3406 3.45545C44.3406 3.16724 44.1069 2.93359 43.8187 2.93359C43.5305 2.93359 43.2969 3.16724 43.2969 3.45545C43.2969 3.74367 43.5305 3.97731 43.8187 3.97731Z" fill="#8AB4F8"/>
<path d="M45.3617 4.52028C45.6499 4.52028 45.8836 4.28664 45.8836 3.99842C45.8836 3.71021 45.6499 3.47656 45.3617 3.47656C45.0735 3.47656 44.8398 3.71021 44.8398 3.99842C44.8398 4.28664 45.0735 4.52028 45.3617 4.52028Z" fill="#8AB4F8"/>
<path d="M45.6 3.10036C45.8882 3.10036 46.1218 2.86672 46.1218 2.5785C46.1218 2.29028 45.8882 2.05664 45.6 2.05664C45.3118 2.05664 45.0781 2.29028 45.0781 2.5785C45.0781 2.86672 45.3118 3.10036 45.6 3.10036Z" fill="#8AB4F8"/>
<path d="M47.1976 3.48513C47.4859 3.48513 47.7195 3.25148 47.7195 2.96327C47.7195 2.67505 47.4859 2.44141 47.1976 2.44141C46.9094 2.44141 46.6758 2.67505 46.6758 2.96327C46.6758 3.25148 46.9094 3.48513 47.1976 3.48513Z" fill="#8AB4F8"/>
<path d="M47.1156 1.85817C47.4038 1.85817 47.6375 1.62453 47.6375 1.33631C47.6375 1.0481 47.4038 0.814453 47.1156 0.814453C46.8274 0.814453 46.5938 1.0481 46.5938 1.33631C46.5938 1.62453 46.8274 1.85817 47.1156 1.85817Z" fill="#8AB4F8"/>
<path d="M48.432 2.07888C48.7202 2.07888 48.9539 1.84523 48.9539 1.55702C48.9539 1.2688 48.7202 1.03516 48.432 1.03516C48.1438 1.03516 47.9102 1.2688 47.9102 1.55702C47.9102 1.84523 48.1438 2.07888 48.432 2.07888Z" fill="#8AB4F8"/>
<path d="M49.807 1.04372C50.0952 1.04372 50.3289 0.810075 50.3289 0.52186C50.3289 0.233644 50.0952 0 49.807 0C49.5188 0 49.2852 0.233644 49.2852 0.52186C49.2852 0.810075 49.5188 1.04372 49.807 1.04372Z" fill="#8AB4F8"/>
<path d="M26.3945 9.11327C26.7893 9.11327 27.1094 8.79323 27.1094 8.39843C27.1094 8.00364 26.7893 7.68359 26.3945 7.68359C25.9997 7.68359 25.6797 8.00364 25.6797 8.39843C25.6797 8.79323 25.9997 9.11327 26.3945 9.11327Z" fill="#8AB4F8"/>
<path d="M24.332 10.7695C24.7268 10.7695 25.0469 10.4495 25.0469 10.0547C25.0469 9.65989 24.7268 9.33984 24.332 9.33984C23.9372 9.33984 23.6172 9.65989 23.6172 10.0547C23.6172 10.4495 23.9372 10.7695 24.332 10.7695Z" fill="#8AB4F8"/>
<path d="M24.5391 13.9141C24.9339 13.9141 25.2539 13.594 25.2539 13.1992C25.2539 12.8044 24.9339 12.4844 24.5391 12.4844C24.1443 12.4844 23.8242 12.8044 23.8242 13.1992C23.8242 13.594 24.1443 13.9141 24.5391 13.9141Z" fill="#8AB4F8"/>
<path d="M19.3945 13.8125C19.7893 13.8125 20.1094 13.4924 20.1094 13.0977C20.1094 12.7029 19.7893 12.3828 19.3945 12.3828C18.9997 12.3828 18.6797 12.7029 18.6797 13.0977C18.6797 13.4924 18.9997 13.8125 19.3945 13.8125Z" fill="#8AB4F8"/>
<path d="M15.5391 22.5098C15.9339 22.5098 16.2539 22.1897 16.2539 21.7949C16.2539 21.4001 15.9339 21.0801 15.5391 21.0801C15.1443 21.0801 14.8242 21.4001 14.8242 21.7949C14.8242 22.1897 15.1443 22.5098 15.5391 22.5098Z" fill="#8AB4F8"/>
<path d="M51.9874 34.1168L51.9575 22.1195L46.073 32.0022H43.9883L38.1336 22.3777V34.1168H33.793V14.123H37.6199L45.1026 26.5471L52.4712 14.123H56.271L56.3281 34.1168H51.9874Z" fill="#181818"/>
<path d="M71.2928 20.223C72.5676 21.3564 73.2063 23.066 73.2063 25.3491V34.1175H69.0369V32.204C68.1997 33.631 66.6369 34.3458 64.3537 34.3458C63.1714 34.3458 62.1494 34.1447 61.2824 33.7451C60.4153 33.3456 59.7549 32.7938 59.2982 32.0871C58.8416 31.3831 58.6133 30.5841 58.6133 29.6871C58.6133 28.2574 59.1514 27.1349 60.2278 26.3168C61.3041 25.4986 62.9648 25.0882 65.2126 25.0882H68.7542C68.7542 24.1179 68.4579 23.3704 67.8681 22.8459C67.2783 22.3213 66.3923 22.0603 65.2126 22.0603C64.3945 22.0603 63.59 22.1881 62.799 22.4463C62.0081 22.7045 61.3367 23.0497 60.785 23.49L59.1841 20.3779C60.0212 19.7881 61.0269 19.3315 62.1983 19.008C63.3698 18.6846 64.5739 18.5215 65.8106 18.5215C68.1916 18.5215 70.0181 19.0896 71.2956 20.2202L71.2928 20.223ZM67.4958 30.8178C68.0856 30.4645 68.5042 29.9453 68.7515 29.2604V27.6894H65.6964C63.8672 27.6894 62.954 28.29 62.954 29.4887C62.954 30.0595 63.1768 30.5134 63.6253 30.845C64.0738 31.1793 64.6853 31.3451 65.4681 31.3451C66.2509 31.3451 66.906 31.1684 67.4958 30.8178Z" fill="#181818"/>
<path d="M75.7031 18.75V34.1177H80.158V18.75H75.7031Z" fill="#181818"/>
<path d="M96.8071 20.2366C97.9785 21.3781 98.5629 23.0742 98.5629 25.3193V34.1175H94.1081V26.0069C94.1081 24.7892 93.8417 23.8787 93.309 23.278C92.7762 22.6773 92.0043 22.3784 90.9959 22.3784C89.8734 22.3784 88.9764 22.7263 88.3105 23.4221C87.6446 24.1179 87.3103 25.1507 87.3103 26.5206V34.1175H82.8555V18.7498H87.1119V20.5491C87.7017 19.9022 88.4356 19.4021 89.3108 19.0488C90.186 18.6954 91.1481 18.5215 92.1946 18.5215C94.0972 18.5215 95.6356 19.0923 96.8071 20.2366Z" fill="#181818"/>
<path d="M103.866 33.6464C102.466 33.1789 101.368 32.5755 100.566 31.8335L101.624 29.6047C102.385 30.2896 103.361 30.8468 104.551 31.2763C105.742 31.7057 106.965 31.9177 108.22 31.9177C109.878 31.9177 111.115 31.6378 111.933 31.0751C112.751 30.5125 113.162 29.765 113.162 28.8328C113.162 28.1478 112.939 27.5906 112.49 27.1612C112.042 26.7317 111.49 26.4056 110.832 26.1773C110.175 25.9489 109.248 25.6907 108.046 25.4053C106.541 25.0438 105.328 24.6823 104.404 24.3209C103.48 23.9594 102.692 23.4022 102.034 22.6493C101.376 21.8964 101.047 20.8826 101.047 19.6078C101.047 18.5423 101.327 17.5802 101.89 16.724C102.453 15.8678 103.303 15.1802 104.448 14.6664C105.589 14.1527 107.008 13.8945 108.704 13.8945C109.884 13.8945 111.047 14.0467 112.189 14.3512C113.33 14.6556 114.311 15.0932 115.13 15.664L114.186 17.9498C113.349 17.4171 112.455 17.0121 111.501 16.7349C110.55 16.4576 109.615 16.3217 108.701 16.3217C107.081 16.3217 105.869 16.618 105.059 17.2078C104.249 17.7976 103.844 18.5614 103.844 19.4936C103.844 20.1786 104.073 20.7358 104.529 21.1652C104.986 21.5947 105.554 21.9263 106.228 22.1655C106.905 22.4046 107.824 22.6547 108.984 22.9211C110.487 23.2826 111.697 23.6441 112.613 24.0056C113.526 24.3671 114.311 24.9188 114.969 25.6636C115.627 26.4083 115.956 27.4058 115.956 28.6615C115.956 29.708 115.67 30.6647 115.1 31.5318C114.529 32.3988 113.662 33.0837 112.501 33.5893C111.341 34.0948 109.911 34.3449 108.218 34.3449C106.712 34.3449 105.26 34.1112 103.861 33.6464H103.866Z" fill="#181818"/>
<path d="M132.213 27.4637H119.93C120.101 28.7982 120.686 29.8691 121.686 30.6764C122.686 31.4864 123.928 31.8913 125.412 31.8913C127.22 31.8913 128.677 31.2825 129.783 30.0621L131.297 31.8315C130.612 32.6306 129.758 33.2422 128.742 33.6608C127.723 34.0793 126.586 34.2886 125.328 34.2886C123.727 34.2886 122.308 33.9598 121.072 33.302C119.835 32.6442 118.878 31.7255 118.201 30.5459C117.525 29.3663 117.188 28.0318 117.188 26.5477C117.188 25.0637 117.516 23.759 118.174 22.5767C118.832 21.3971 119.734 20.4784 120.887 19.8206C122.039 19.1629 123.338 18.834 124.787 18.834C126.236 18.834 127.524 19.1629 128.658 19.8206C129.791 20.4784 130.674 21.3971 131.313 22.5767C131.952 23.759 132.27 25.1099 132.27 26.632C132.27 26.8413 132.251 27.1185 132.213 27.461V27.4637ZM121.487 22.3511C120.601 23.1502 120.082 24.1994 119.93 25.4931H129.641C129.489 24.2184 128.97 23.1747 128.084 22.3647C127.198 21.5547 126.1 21.1497 124.784 21.1497C123.469 21.1497 122.371 21.5493 121.485 22.3484L121.487 22.3511Z" fill="#181818"/>
<path d="M149.48 18.9812V39.6599H146.737V31.8347C146.109 32.6338 145.343 33.2453 144.438 33.6639C143.533 34.0825 142.538 34.2918 141.454 34.2918C139.986 34.2918 138.673 33.9683 137.512 33.3214C136.349 32.6746 135.441 31.764 134.784 30.5926C134.126 29.4211 133.797 28.0757 133.797 26.5509C133.797 25.0261 134.126 23.6861 134.784 22.5228C135.441 21.3622 136.349 20.4571 137.512 19.8102C138.673 19.1633 139.989 18.8398 141.454 18.8398C142.576 18.8398 143.606 19.0546 144.538 19.4813C145.471 19.9107 146.243 20.544 146.852 21.3812V18.9812H149.48ZM144.283 31.2177C145.063 30.7719 145.672 30.1414 146.112 29.3341C146.55 28.5241 146.77 27.5973 146.77 26.5481C146.77 25.499 146.547 24.5776 146.099 23.7785C145.65 22.9794 145.041 22.357 144.269 21.9085C143.497 21.4627 142.636 21.2371 141.685 21.2371C140.733 21.2371 139.842 21.4573 139.073 21.8949C138.301 22.3325 137.692 22.9576 137.243 23.7649C136.795 24.5749 136.572 25.5044 136.572 26.5509C136.572 27.5973 136.795 28.5269 137.243 29.3368C137.689 30.1468 138.301 30.7747 139.073 31.2204C139.844 31.6689 140.714 31.8918 141.685 31.8918C142.655 31.8918 143.503 31.6689 144.283 31.2204V31.2177Z" fill="#181818"/>
<path d="M166.495 18.9793V34.1186H163.897V31.8328C163.345 32.6129 162.617 33.219 161.712 33.6457C160.807 34.0752 159.823 34.2872 158.755 34.2872C156.735 34.2872 155.145 33.73 153.984 32.6156C152.824 31.5012 152.242 29.8595 152.242 27.6878V18.9766H154.985V27.3752C154.985 28.843 155.338 29.9492 156.042 30.7021C156.746 31.455 157.757 31.8301 159.07 31.8301C160.516 31.8301 161.66 31.3925 162.497 30.5173C163.334 29.6421 163.753 28.4027 163.753 26.8045V18.9793H166.495Z" fill="#181818"/>
<path d="M183.754 27.4637H171.472C171.643 28.7982 172.227 29.8691 173.228 30.6764C174.228 31.4864 175.47 31.8913 176.954 31.8913C178.761 31.8913 180.218 31.2825 181.325 30.0621L182.839 31.8315C182.154 32.6306 181.3 33.2422 180.281 33.6608C179.262 34.0793 178.125 34.2886 176.867 34.2886C175.269 34.2886 173.85 33.9598 172.611 33.302C171.371 32.6442 170.417 31.7255 169.74 30.5459C169.064 29.3663 168.727 28.0318 168.727 26.5477C168.727 25.0637 169.055 23.759 169.71 22.5767C170.368 21.3971 171.271 20.4784 172.423 19.8206C173.576 19.1629 174.875 18.834 176.321 18.834C177.767 18.834 179.058 19.1629 180.191 19.8206C181.325 20.4784 182.211 21.3971 182.847 22.5767C183.485 23.759 183.803 25.1099 183.803 26.632C183.803 26.8413 183.784 27.1185 183.746 27.461L183.754 27.4637ZM173.029 22.3511C172.143 23.1502 171.624 24.1994 171.472 25.4931H181.183C181.031 24.2184 180.512 23.1747 179.626 22.3647C178.74 21.5547 177.642 21.1497 176.326 21.1497C175.011 21.1497 173.913 21.5493 173.026 22.3484L173.029 22.3511Z" fill="#181818"/>
<path d="M198.652 20.5075C199.785 21.6219 200.351 23.2554 200.351 25.4054V34.1166H197.608V25.7207C197.608 24.2529 197.255 23.1494 196.551 22.4074C195.847 21.6654 194.838 21.293 193.523 21.293C192.039 21.293 190.867 21.7279 190.009 22.5922C189.152 23.4593 188.723 24.7014 188.723 26.3186V34.1166H185.98V18.9773H188.609V21.2631C189.161 20.4831 189.908 19.8824 190.851 19.4638C191.794 19.0452 192.865 18.8359 194.064 18.8359C195.985 18.8359 197.516 19.3931 198.649 20.5075H198.652Z" fill="#181818"/>
<path d="M206.062 33.2884C204.852 32.6225 203.906 31.7038 203.219 30.5323C202.534 29.3609 202.191 28.0345 202.191 26.5477C202.191 25.061 202.534 23.7346 203.219 22.5631C203.904 21.3916 204.852 20.4784 206.062 19.8206C207.271 19.1629 208.647 18.834 210.191 18.834C211.56 18.834 212.784 19.1112 213.86 19.663C214.936 20.2147 215.768 21.0166 216.358 22.063L214.273 23.4057C213.797 22.6827 213.208 22.1391 212.504 21.7776C211.8 21.4161 211.02 21.234 210.161 21.234C209.171 21.234 208.28 21.4542 207.489 21.8918C206.698 22.3294 206.078 22.9545 205.632 23.7618C205.184 24.5717 204.961 25.5013 204.961 26.5477C204.961 27.5942 205.184 28.5509 205.632 29.3609C206.081 30.1708 206.698 30.7933 207.489 31.2309C208.28 31.6685 209.169 31.8886 210.161 31.8886C211.017 31.8886 211.797 31.7065 212.504 31.345C213.208 30.9835 213.797 30.4399 214.273 29.7169L216.358 31.0297C215.768 32.0762 214.933 32.8834 213.86 33.4433C212.784 34.006 211.56 34.2859 210.191 34.2859C208.647 34.2859 207.271 33.9516 206.062 33.2857V33.2884Z" fill="#181818"/>
<path d="M232.946 27.4637H220.663C220.834 28.7982 221.419 29.8691 222.419 30.6764C223.419 31.4864 224.661 31.8913 226.145 31.8913C227.953 31.8913 229.41 31.2825 230.516 30.0621L232.03 31.8315C231.345 32.6306 230.492 33.2422 229.472 33.6608C228.453 34.0793 227.317 34.2886 226.058 34.2886C224.46 34.2886 223.041 33.9598 221.802 33.302C220.563 32.6442 219.609 31.7255 218.932 30.5459C218.255 29.3663 217.918 28.0318 217.918 26.5477C217.918 25.0637 218.247 23.759 218.905 22.5767C219.562 21.3971 220.465 20.4784 221.617 19.8206C222.77 19.1629 224.069 18.834 225.518 18.834C226.966 18.834 228.255 19.1629 229.388 19.8206C230.521 20.4784 231.405 21.3971 232.044 22.5767C232.682 23.759 233 25.1099 233 26.632C233 26.8413 232.981 27.1185 232.943 27.461L232.946 27.4637ZM222.221 22.3511C221.335 23.1502 220.815 24.1994 220.663 25.4931H230.375C230.222 24.2184 229.703 23.1747 228.817 22.3647C227.931 21.5547 226.833 21.1497 225.518 21.1497C224.202 21.1497 223.104 21.5493 222.218 22.3484L222.221 22.3511Z" fill="#181818"/>
<path d="M77.9298 16.7268C79.3904 16.7268 80.5744 15.5427 80.5744 14.0821C80.5744 12.6215 79.3904 11.4375 77.9298 11.4375C76.4692 11.4375 75.2852 12.6215 75.2852 14.0821C75.2852 15.5427 76.4692 16.7268 77.9298 16.7268Z" fill="#8AB4F8"/>
</svg>
