<svg width="24" height="20" viewBox="0 0 24 20" fill="none" xmlns="http://www.w3.org/2000/svg">
<path d="M13.2661 19.4661L22.8737 19.4661L22.8737 18.931L22.2117 18.931L22.2117 17.3102L21.5725 17.3102L21.5725 14.7079L21.1616 14.7079L21.1616 11.1467L19.8376 11.1467L19.8376 9.98251L18.3081 9.98251L18.3081 7.88235L14.1991 7.88235L14.1991 6.83227L13.6969 6.83227L13.6969 4.43535L13.2661 4.43535L13.2661 19.4661Z" fill="black"/>
<path fill-rule="evenodd" clip-rule="evenodd" d="M13.7241 1.1998e-06L13.7241 3.98027L14.1549 3.98027L14.1549 6.37719L14.6571 6.37719L14.6571 7.42727L18.7661 7.42727L18.7661 9.52743L20.2955 9.52743L20.2955 10.6916L21.6196 10.6916L21.6196 14.2528L22.0305 14.2528L22.0305 16.8552L22.6696 16.8552L22.6696 18.4759L23.3316 18.4759L23.3316 19.0111L23.5435 19.0111C23.7956 19.0111 24 19.2155 24 19.4676C24 19.7197 23.7956 19.9241 23.5435 19.9241L0.456516 19.9241C0.204388 19.9241 -1.72395e-06 19.7197 -1.70191e-06 19.4676C-1.68116e-06 19.2302 0.181183 19.0351 0.412806 19.0131L0.412806 17.3556L1.06949 17.3556L1.06949 15.2278L2.06766 15.2278L2.06766 11.2615L3.53863 11.2615L3.53863 9.60668L5.27229 9.60668L5.27229 7.68924L6.45432 7.68924L6.45432 6.71743L10.9986 6.71743L10.9986 5.90317L11.5502 5.90317L11.5502 3.19831L11.918 3.19831L11.918 2.20019L12.4433 2.20019L12.4433 1.22947e-06L13.7241 1.1998e-06ZM12.811 4.11134L12.4632 4.11134L12.4632 6.81621L11.9116 6.81621L11.9116 7.63046L7.36736 7.63046L7.36736 8.60227L6.18532 8.60227L6.18532 10.5197L4.45167 10.5197L4.45167 12.1745L2.98069 12.1745L2.98069 16.1408L1.98253 16.1408L1.98253 18.2686L1.32584 18.2686L1.32584 19.0111L12.811 19.0111L12.811 4.11134ZM13.7241 19.0111L21.7566 19.0111L21.7566 17.7682L21.1174 17.7682L21.1174 15.1658L20.7065 15.1658L20.7065 11.6047L19.3825 11.6047L19.3825 10.4405L17.853 10.4405L17.853 8.3403L13.744 8.3403L13.744 7.29022L13.7241 7.29022L13.7241 19.0111Z" fill="black"/>
<path fill-rule="evenodd" clip-rule="evenodd" d="M11.2129 8.8981C11.2129 8.73001 11.3492 8.59375 11.5172 8.59375H12.0001C12.1682 8.59375 12.3044 8.73001 12.3044 8.8981C12.3044 9.06618 12.1682 9.20244 12.0001 9.20244H11.5172C11.3492 9.20244 11.2129 9.06618 11.2129 8.8981Z" fill="black"/>
<path fill-rule="evenodd" clip-rule="evenodd" d="M15.0254 8.8981C15.0254 8.73001 15.1617 8.59375 15.3297 8.59375H15.8126C15.9807 8.59375 16.1169 8.73001 16.1169 8.8981C16.1169 9.06618 15.9807 9.20244 15.8126 9.20244H15.3297C15.1617 9.20244 15.0254 9.06618 15.0254 8.8981Z" fill="white"/>
<path fill-rule="evenodd" clip-rule="evenodd" d="M8.42188 8.8981C8.42188 8.73001 8.55813 8.59375 8.72622 8.59375H9.20908C9.37716 8.59375 9.51342 8.73001 9.51342 8.8981C9.51342 9.06618 9.37716 9.20244 9.20908 9.20244H8.72622C8.55813 9.20244 8.42188 9.06618 8.42188 8.8981Z" fill="black"/>
<path fill-rule="evenodd" clip-rule="evenodd" d="M11.2129 10.6364C11.2129 10.4683 11.3492 10.332 11.5172 10.332H12.0001C12.1682 10.332 12.3044 10.4683 12.3044 10.6364C12.3044 10.8045 12.1682 10.9407 12.0001 10.9407H11.5172C11.3492 10.9407 11.2129 10.8045 11.2129 10.6364Z" fill="black"/>
<path fill-rule="evenodd" clip-rule="evenodd" d="M15.0254 10.6364C15.0254 10.4683 15.1617 10.332 15.3297 10.332H15.8126C15.9807 10.332 16.1169 10.4683 16.1169 10.6364C16.1169 10.8045 15.9807 10.9407 15.8126 10.9407H15.3297C15.1617 10.9407 15.0254 10.8045 15.0254 10.6364Z" fill="white"/>
<path fill-rule="evenodd" clip-rule="evenodd" d="M8.42188 10.6364C8.42188 10.4683 8.55813 10.332 8.72622 10.332H9.20908C9.37716 10.332 9.51342 10.4683 9.51342 10.6364C9.51342 10.8045 9.37716 10.9407 9.20908 10.9407H8.72622C8.55813 10.9407 8.42188 10.8045 8.42188 10.6364Z" fill="black"/>
<path fill-rule="evenodd" clip-rule="evenodd" d="M11.2129 12.3786C11.2129 12.2105 11.3492 12.0742 11.5172 12.0742H12.0001C12.1682 12.0742 12.3044 12.2105 12.3044 12.3786C12.3044 12.5466 12.1682 12.6829 12.0001 12.6829H11.5172C11.3492 12.6829 11.2129 12.5466 11.2129 12.3786Z" fill="black"/>
<path fill-rule="evenodd" clip-rule="evenodd" d="M15.0254 12.3786C15.0254 12.2105 15.1617 12.0742 15.3297 12.0742H15.8126C15.9807 12.0742 16.1169 12.2105 16.1169 12.3786C16.1169 12.5466 15.9807 12.6829 15.8126 12.6829H15.3297C15.1617 12.6829 15.0254 12.5466 15.0254 12.3786Z" fill="white"/>
<path fill-rule="evenodd" clip-rule="evenodd" d="M18.0898 12.3786C18.0898 12.2105 18.2261 12.0742 18.3942 12.0742H18.877C19.0451 12.0742 19.1814 12.2105 19.1814 12.3786C19.1814 12.5466 19.0451 12.6829 18.877 12.6829H18.3942C18.2261 12.6829 18.0898 12.5466 18.0898 12.3786Z" fill="white"/>
<path fill-rule="evenodd" clip-rule="evenodd" d="M8.42188 12.3786C8.42188 12.2105 8.55813 12.0742 8.72622 12.0742H9.20908C9.37716 12.0742 9.51342 12.2105 9.51342 12.3786C9.51342 12.5466 9.37716 12.6829 9.20908 12.6829H8.72622C8.55813 12.6829 8.42188 12.5466 8.42188 12.3786Z" fill="black"/>
<path fill-rule="evenodd" clip-rule="evenodd" d="M5.49414 12.3786C5.49414 12.2105 5.6304 12.0742 5.79849 12.0742H6.28135C6.44943 12.0742 6.58569 12.2105 6.58569 12.3786C6.58569 12.5466 6.44943 12.6829 6.28135 12.6829H5.79849C5.6304 12.6829 5.49414 12.5466 5.49414 12.3786Z" fill="black"/>
<path fill-rule="evenodd" clip-rule="evenodd" d="M11.2129 13.8415C11.2129 13.6734 11.3492 13.5371 11.5172 13.5371H12.0001C12.1682 13.5371 12.3044 13.6734 12.3044 13.8415C12.3044 14.0095 12.1682 14.1458 12.0001 14.1458H11.5172C11.3492 14.1458 11.2129 14.0095 11.2129 13.8415Z" fill="black"/>
<path fill-rule="evenodd" clip-rule="evenodd" d="M15.0254 13.8415C15.0254 13.6734 15.1617 13.5371 15.3297 13.5371H15.8126C15.9807 13.5371 16.1169 13.6734 16.1169 13.8415C16.1169 14.0095 15.9807 14.1458 15.8126 14.1458H15.3297C15.1617 14.1458 15.0254 14.0095 15.0254 13.8415Z" fill="white"/>
<path fill-rule="evenodd" clip-rule="evenodd" d="M18.0898 13.8415C18.0898 13.6734 18.2261 13.5371 18.3942 13.5371H18.877C19.0451 13.5371 19.1814 13.6734 19.1814 13.8415C19.1814 14.0095 19.0451 14.1458 18.877 14.1458H18.3942C18.2261 14.1458 18.0898 14.0095 18.0898 13.8415Z" fill="white"/>
<path fill-rule="evenodd" clip-rule="evenodd" d="M8.42188 13.8415C8.42188 13.6734 8.55813 13.5371 8.72622 13.5371H9.20908C9.37716 13.5371 9.51342 13.6734 9.51342 13.8415C9.51342 14.0095 9.37716 14.1458 9.20908 14.1458H8.72622C8.55813 14.1458 8.42188 14.0095 8.42188 13.8415Z" fill="black"/>
<path fill-rule="evenodd" clip-rule="evenodd" d="M5.49414 13.8415C5.49414 13.6734 5.6304 13.5371 5.79849 13.5371H6.28135C6.44943 13.5371 6.58569 13.6734 6.58569 13.8415C6.58569 14.0095 6.44943 14.1458 6.28135 14.1458H5.79849C5.6304 14.1458 5.49414 14.0095 5.49414 13.8415Z" fill="black"/>
<path fill-rule="evenodd" clip-rule="evenodd" d="M11.2129 15.5817C11.2129 15.4136 11.3492 15.2773 11.5172 15.2773H12.0001C12.1682 15.2773 12.3044 15.4136 12.3044 15.5817C12.3044 15.7498 12.1682 15.886 12.0001 15.886H11.5172C11.3492 15.886 11.2129 15.7498 11.2129 15.5817Z" fill="black"/>
<path fill-rule="evenodd" clip-rule="evenodd" d="M15.0254 15.5817C15.0254 15.4136 15.1617 15.2773 15.3297 15.2773H15.8126C15.9807 15.2773 16.1169 15.4136 16.1169 15.5817C16.1169 15.7498 15.9807 15.886 15.8126 15.886H15.3297C15.1617 15.886 15.0254 15.7498 15.0254 15.5817Z" fill="white"/>
<path fill-rule="evenodd" clip-rule="evenodd" d="M18.0898 15.5817C18.0898 15.4136 18.2261 15.2773 18.3942 15.2773H18.877C19.0451 15.2773 19.1814 15.4136 19.1814 15.5817C19.1814 15.7498 19.0451 15.886 18.877 15.886H18.3942C18.2261 15.886 18.0898 15.7498 18.0898 15.5817Z" fill="white"/>
<path fill-rule="evenodd" clip-rule="evenodd" d="M8.42188 15.5817C8.42188 15.4136 8.55813 15.2773 8.72622 15.2773H9.20908C9.37716 15.2773 9.51342 15.4136 9.51342 15.5817C9.51342 15.7498 9.37716 15.886 9.20908 15.886H8.72622C8.55813 15.886 8.42188 15.7498 8.42188 15.5817Z" fill="black"/>
<path fill-rule="evenodd" clip-rule="evenodd" d="M5.49414 15.5817C5.49414 15.4136 5.6304 15.2773 5.79849 15.2773H6.28135C6.44943 15.2773 6.58569 15.4136 6.58569 15.5817C6.58569 15.7498 6.44943 15.886 6.28135 15.886H5.79849C5.6304 15.886 5.49414 15.7498 5.49414 15.5817Z" fill="black"/>
<path fill-rule="evenodd" clip-rule="evenodd" d="M11.2129 17.5973C11.2129 17.4292 11.3492 17.293 11.5172 17.293H12.0001C12.1682 17.293 12.3044 17.4292 12.3044 17.5973C12.3044 17.7654 12.1682 17.9017 12.0001 17.9017H11.5172C11.3492 17.9017 11.2129 17.7654 11.2129 17.5973Z" fill="black"/>
<path fill-rule="evenodd" clip-rule="evenodd" d="M15.0254 17.5973C15.0254 17.4292 15.1617 17.293 15.3297 17.293H15.8126C15.9807 17.293 16.1169 17.4292 16.1169 17.5973C16.1169 17.7654 15.9807 17.9017 15.8126 17.9017H15.3297C15.1617 17.9017 15.0254 17.7654 15.0254 17.5973Z" fill="white"/>
<path fill-rule="evenodd" clip-rule="evenodd" d="M18.0898 17.5973C18.0898 17.4292 18.2261 17.293 18.3942 17.293H18.877C19.0451 17.293 19.1814 17.4292 19.1814 17.5973C19.1814 17.7654 19.0451 17.9017 18.877 17.9017H18.3942C18.2261 17.9017 18.0898 17.7654 18.0898 17.5973Z" fill="white"/>
<path fill-rule="evenodd" clip-rule="evenodd" d="M8.42188 17.5973C8.42188 17.4292 8.55813 17.293 8.72622 17.293H9.20908C9.37716 17.293 9.51342 17.4292 9.51342 17.5973C9.51342 17.7654 9.37716 17.9017 9.20908 17.9017H8.72622C8.55813 17.9017 8.42188 17.7654 8.42188 17.5973Z" fill="black"/>
<path fill-rule="evenodd" clip-rule="evenodd" d="M5.49414 17.5973C5.49414 17.4292 5.6304 17.293 5.79849 17.293H6.28135C6.44943 17.293 6.58569 17.4292 6.58569 17.5973C6.58569 17.7654 6.44943 17.9017 6.28135 17.9017H5.79849C5.6304 17.9017 5.49414 17.7654 5.49414 17.5973Z" fill="black"/>
</svg>
