<svg width="42" height="36" viewBox="0 0 42 36" fill="none" xmlns="http://www.w3.org/2000/svg">
<path d="M23.2182 34.5682L40.0314 34.5682L40.0314 33.6317L38.8729 33.6317L38.8729 30.7954L37.7543 30.7954L37.7543 26.2412L37.0352 26.2412L37.0352 20.0092L34.7182 20.0092L34.7182 17.9718L32.0416 17.9718L32.0416 14.2965L24.8509 14.2965L24.8509 12.4589L23.972 12.4589L23.972 8.2643L23.2182 8.2643L23.2182 34.5682Z" fill="#8AB4F8"/>
<path fill-rule="evenodd" clip-rule="evenodd" d="M24.0171 0.500002L24.0171 7.46547L24.771 7.46547L24.771 11.6601L25.6499 11.6601L25.6499 13.4977L32.8406 13.4977L32.8406 17.173L35.5172 17.173L35.5172 19.2104L37.8342 19.2104L37.8342 25.4424L38.5533 25.4424L38.5533 29.9965L39.6719 29.9965L39.6719 32.8329L40.8304 32.8329L40.8304 33.7694L41.2011 33.7694C41.6423 33.7694 42 34.1271 42 34.5683C42 35.0095 41.6423 35.3672 41.2011 35.3672L0.798903 35.3672C0.35768 35.3672 -3.01692e-06 35.0095 -2.97834e-06 34.5683C-2.94203e-06 34.1529 0.31707 33.8115 0.72241 33.773L0.72241 30.8723L1.87161 30.8723L1.87161 27.1487L3.6184 27.1487L3.6184 20.2076L6.19261 20.2076L6.19261 17.3117L9.2265 17.3117L9.2265 13.9562L11.2951 13.9562L11.2951 12.2555L19.2475 12.2555L19.2475 10.8305L20.2129 10.8305L20.2129 6.09704L20.8564 6.09704L20.8564 4.35034L21.7758 4.35034L21.7758 0.500002L24.0171 0.500002ZM22.4193 7.69485L21.8107 7.69485L21.8107 12.4284L20.8454 12.4284L20.8454 13.8533L12.8929 13.8533L12.8929 15.554L10.8243 15.554L10.8243 18.9095L7.79042 18.9095L7.79042 21.8054L5.21621 21.8054L5.21621 28.7465L3.46942 28.7465L3.46942 32.4701L2.32022 32.4701L2.32022 33.7694L22.4193 33.7694L22.4193 7.69485ZM24.0171 33.7694L38.074 33.7694L38.074 31.5943L36.9555 31.5943L36.9555 27.0402L36.2364 27.0402L36.2364 20.8082L33.9194 20.8082L33.9194 18.7708L31.2428 18.7708L31.2428 15.0955L24.0521 15.0955L24.0521 13.2579L24.0171 13.2579L24.0171 33.7694Z" fill="#8AB4F8"/>
<path fill-rule="evenodd" clip-rule="evenodd" d="M19.623 16.0697C19.623 15.7756 19.8615 15.5371 20.1557 15.5371H21.0007C21.2948 15.5371 21.5333 15.7756 21.5333 16.0697C21.5333 16.3639 21.2948 16.6023 21.0007 16.6023H20.1557C19.8615 16.6023 19.623 16.3639 19.623 16.0697Z" fill="#8AB4F8"/>
<path fill-rule="evenodd" clip-rule="evenodd" d="M26.293 16.0697C26.293 15.7756 26.5314 15.5371 26.8256 15.5371H27.6706C27.9647 15.5371 28.2032 15.7756 28.2032 16.0697C28.2032 16.3639 27.9647 16.6023 27.6706 16.6023H26.8256C26.5314 16.6023 26.293 16.3639 26.293 16.0697Z" fill="white"/>
<path fill-rule="evenodd" clip-rule="evenodd" d="M14.7402 16.0697C14.7402 15.7756 14.9787 15.5371 15.2728 15.5371H16.1178C16.412 15.5371 16.6504 15.7756 16.6504 16.0697C16.6504 16.3639 16.412 16.6023 16.1178 16.6023H15.2728C14.9787 16.6023 14.7402 16.3639 14.7402 16.0697Z" fill="#8AB4F8"/>
<path fill-rule="evenodd" clip-rule="evenodd" d="M19.623 19.1127C19.623 18.8185 19.8615 18.5801 20.1557 18.5801H21.0007C21.2948 18.5801 21.5333 18.8185 21.5333 19.1127C21.5333 19.4068 21.2948 19.6453 21.0007 19.6453H20.1557C19.8615 19.6453 19.623 19.4068 19.623 19.1127Z" fill="#8AB4F8"/>
<path fill-rule="evenodd" clip-rule="evenodd" d="M26.293 19.1127C26.293 18.8185 26.5314 18.5801 26.8256 18.5801H27.6706C27.9647 18.5801 28.2032 18.8185 28.2032 19.1127C28.2032 19.4068 27.9647 19.6453 27.6706 19.6453H26.8256C26.5314 19.6453 26.293 19.4068 26.293 19.1127Z" fill="white"/>
<path fill-rule="evenodd" clip-rule="evenodd" d="M14.7402 19.1127C14.7402 18.8185 14.9787 18.5801 15.2728 18.5801H16.1178C16.412 18.5801 16.6504 18.8185 16.6504 19.1127C16.6504 19.4068 16.412 19.6453 16.1178 19.6453H15.2728C14.9787 19.6453 14.7402 19.4068 14.7402 19.1127Z" fill="#8AB4F8"/>
<path fill-rule="evenodd" clip-rule="evenodd" d="M19.623 22.1635C19.623 21.8693 19.8615 21.6309 20.1557 21.6309H21.0007C21.2948 21.6309 21.5333 21.8693 21.5333 22.1635C21.5333 22.4576 21.2948 22.6961 21.0007 22.6961H20.1557C19.8615 22.6961 19.623 22.4576 19.623 22.1635Z" fill="#8AB4F8"/>
<path fill-rule="evenodd" clip-rule="evenodd" d="M26.293 22.1635C26.293 21.8693 26.5314 21.6309 26.8256 21.6309H27.6706C27.9647 21.6309 28.2032 21.8693 28.2032 22.1635C28.2032 22.4576 27.9647 22.6961 27.6706 22.6961H26.8256C26.5314 22.6961 26.293 22.4576 26.293 22.1635Z" fill="white"/>
<path fill-rule="evenodd" clip-rule="evenodd" d="M31.6582 22.1635C31.6582 21.8693 31.8967 21.6309 32.1908 21.6309H33.0358C33.33 21.6309 33.5684 21.8693 33.5684 22.1635C33.5684 22.4576 33.33 22.6961 33.0358 22.6961H32.1908C31.8967 22.6961 31.6582 22.4576 31.6582 22.1635Z" fill="white"/>
<path fill-rule="evenodd" clip-rule="evenodd" d="M14.7402 22.1635C14.7402 21.8693 14.9787 21.6309 15.2728 21.6309H16.1178C16.412 21.6309 16.6504 21.8693 16.6504 22.1635C16.6504 22.4576 16.412 22.6961 16.1178 22.6961H15.2728C14.9787 22.6961 14.7402 22.4576 14.7402 22.1635Z" fill="#8AB4F8"/>
<path fill-rule="evenodd" clip-rule="evenodd" d="M9.61523 22.1635C9.61523 21.8693 9.85369 21.6309 10.1478 21.6309H10.9928C11.287 21.6309 11.5254 21.8693 11.5254 22.1635C11.5254 22.4576 11.287 22.6961 10.9928 22.6961H10.1478C9.85369 22.6961 9.61523 22.4576 9.61523 22.1635Z" fill="#8AB4F8"/>
<path fill-rule="evenodd" clip-rule="evenodd" d="M19.623 24.7201C19.623 24.426 19.8615 24.1875 20.1557 24.1875H21.0007C21.2948 24.1875 21.5333 24.426 21.5333 24.7201C21.5333 25.0143 21.2948 25.2527 21.0007 25.2527H20.1557C19.8615 25.2527 19.623 25.0143 19.623 24.7201Z" fill="#8AB4F8"/>
<path fill-rule="evenodd" clip-rule="evenodd" d="M26.293 24.7201C26.293 24.426 26.5314 24.1875 26.8256 24.1875H27.6706C27.9647 24.1875 28.2032 24.426 28.2032 24.7201C28.2032 25.0143 27.9647 25.2527 27.6706 25.2527H26.8256C26.5314 25.2527 26.293 25.0143 26.293 24.7201Z" fill="white"/>
<path fill-rule="evenodd" clip-rule="evenodd" d="M31.6582 24.7201C31.6582 24.426 31.8967 24.1875 32.1908 24.1875H33.0358C33.33 24.1875 33.5684 24.426 33.5684 24.7201C33.5684 25.0143 33.33 25.2527 33.0358 25.2527H32.1908C31.8967 25.2527 31.6582 25.0143 31.6582 24.7201Z" fill="white"/>
<path fill-rule="evenodd" clip-rule="evenodd" d="M14.7402 24.7201C14.7402 24.426 14.9787 24.1875 15.2728 24.1875H16.1178C16.412 24.1875 16.6504 24.426 16.6504 24.7201C16.6504 25.0143 16.412 25.2527 16.1178 25.2527H15.2728C14.9787 25.2527 14.7402 25.0143 14.7402 24.7201Z" fill="#8AB4F8"/>
<path fill-rule="evenodd" clip-rule="evenodd" d="M9.61523 24.7201C9.61523 24.426 9.85369 24.1875 10.1478 24.1875H10.9928C11.287 24.1875 11.5254 24.426 11.5254 24.7201C11.5254 25.0143 11.287 25.2527 10.9928 25.2527H10.1478C9.85369 25.2527 9.61523 25.0143 9.61523 24.7201Z" fill="#8AB4F8"/>
<path fill-rule="evenodd" clip-rule="evenodd" d="M19.623 27.767C19.623 27.4728 19.8615 27.2344 20.1557 27.2344H21.0007C21.2948 27.2344 21.5333 27.4728 21.5333 27.767C21.5333 28.0611 21.2948 28.2996 21.0007 28.2996H20.1557C19.8615 28.2996 19.623 28.0611 19.623 27.767Z" fill="#8AB4F8"/>
<path fill-rule="evenodd" clip-rule="evenodd" d="M26.293 27.767C26.293 27.4728 26.5314 27.2344 26.8256 27.2344H27.6706C27.9647 27.2344 28.2032 27.4728 28.2032 27.767C28.2032 28.0611 27.9647 28.2996 27.6706 28.2996H26.8256C26.5314 28.2996 26.293 28.0611 26.293 27.767Z" fill="white"/>
<path fill-rule="evenodd" clip-rule="evenodd" d="M31.6582 27.767C31.6582 27.4728 31.8967 27.2344 32.1908 27.2344H33.0358C33.33 27.2344 33.5684 27.4728 33.5684 27.767C33.5684 28.0611 33.33 28.2996 33.0358 28.2996H32.1908C31.8967 28.2996 31.6582 28.0611 31.6582 27.767Z" fill="white"/>
<path fill-rule="evenodd" clip-rule="evenodd" d="M14.7402 27.767C14.7402 27.4728 14.9787 27.2344 15.2728 27.2344H16.1178C16.412 27.2344 16.6504 27.4728 16.6504 27.767C16.6504 28.0611 16.412 28.2996 16.1178 28.2996H15.2728C14.9787 28.2996 14.7402 28.0611 14.7402 27.767Z" fill="#8AB4F8"/>
<path fill-rule="evenodd" clip-rule="evenodd" d="M9.61523 27.767C9.61523 27.4728 9.85369 27.2344 10.1478 27.2344H10.9928C11.287 27.2344 11.5254 27.4728 11.5254 27.767C11.5254 28.0611 11.287 28.2996 10.9928 28.2996H10.1478C9.85369 28.2996 9.61523 28.0611 9.61523 27.767Z" fill="#8AB4F8"/>
<path fill-rule="evenodd" clip-rule="evenodd" d="M19.623 31.2943C19.623 31.0002 19.8615 30.7617 20.1557 30.7617H21.0007C21.2948 30.7617 21.5333 31.0002 21.5333 31.2943C21.5333 31.5885 21.2948 31.8269 21.0007 31.8269H20.1557C19.8615 31.8269 19.623 31.5885 19.623 31.2943Z" fill="#8AB4F8"/>
<path fill-rule="evenodd" clip-rule="evenodd" d="M26.293 31.2943C26.293 31.0002 26.5314 30.7617 26.8256 30.7617H27.6706C27.9647 30.7617 28.2032 31.0002 28.2032 31.2943C28.2032 31.5885 27.9647 31.8269 27.6706 31.8269H26.8256C26.5314 31.8269 26.293 31.5885 26.293 31.2943Z" fill="white"/>
<path fill-rule="evenodd" clip-rule="evenodd" d="M31.6582 31.2943C31.6582 31.0002 31.8967 30.7617 32.1908 30.7617H33.0358C33.33 30.7617 33.5684 31.0002 33.5684 31.2943C33.5684 31.5885 33.33 31.8269 33.0358 31.8269H32.1908C31.8967 31.8269 31.6582 31.5885 31.6582 31.2943Z" fill="white"/>
<path fill-rule="evenodd" clip-rule="evenodd" d="M14.7402 31.2943C14.7402 31.0002 14.9787 30.7617 15.2728 30.7617H16.1178C16.412 30.7617 16.6504 31.0002 16.6504 31.2943C16.6504 31.5885 16.412 31.8269 16.1178 31.8269H15.2728C14.9787 31.8269 14.7402 31.5885 14.7402 31.2943Z" fill="#8AB4F8"/>
<path fill-rule="evenodd" clip-rule="evenodd" d="M9.61523 31.2943C9.61523 31.0002 9.85369 30.7617 10.1478 30.7617H10.9928C11.287 30.7617 11.5254 31.0002 11.5254 31.2943C11.5254 31.5885 11.287 31.8269 10.9928 31.8269H10.1478C9.85369 31.8269 9.61523 31.5885 9.61523 31.2943Z" fill="#8AB4F8"/>
</svg>
