<svg width="42" height="42" viewBox="0 0 42 42" fill="none" xmlns="http://www.w3.org/2000/svg">
<path d="M2.8 0C1.2536 0 0 1.2536 0 2.8V26.4629H22.6462V20.0626V0H2.8Z" fill="#8AB4F8"/>
<path fill-rule="evenodd" clip-rule="evenodd" d="M2.8 27.8629L2.8 29.9185H39.007V27.8629H2.8ZM41.807 29.9185C41.807 31.4649 40.5534 32.7185 39.007 32.7185H2.8C1.2536 32.7185 0 31.4649 0 29.9185V2.8C0 1.2536 1.2536 0 2.8 0H39.007C40.5534 0 41.807 1.2536 41.807 2.8V29.9185ZM39.007 20.6575V25.0629H24.0462V20.4961C24.7221 19.5456 25.8372 18.248 27.1982 17.1533C28.7492 15.9058 30.4433 15.0623 32.0585 15.0623C34.0048 15.0623 35.1875 16.0864 36.4579 17.6298C36.6602 17.8756 36.8808 18.1563 37.1116 18.4501C37.5448 19.0015 38.0143 19.5991 38.4677 20.0987C38.6384 20.2868 38.8177 20.4744 39.007 20.6575ZM39.007 16.3295V2.8H24.0462V16.2168C24.479 15.792 24.9466 15.371 25.4433 14.9715C27.2079 13.5522 29.5172 12.2623 32.0585 12.2623C35.3077 12.2623 37.2096 14.1372 38.6198 15.8504C38.7562 16.0161 38.8845 16.1754 39.007 16.3295ZM21.2462 2.8H2.8V25.0629H21.2462V2.8Z" fill="#8AB4F8"/>
<path fill-rule="evenodd" clip-rule="evenodd" d="M16.1023 31.3184H25.2838L27.5535 38.2665H29.8289V41.0665H11.7695V38.2665H13.9034L16.1023 31.3184ZM16.8403 38.2665H24.6079L23.2529 34.1184H18.1531L16.8403 38.2665Z" fill="#8AB4F8"/>
<path fill-rule="evenodd" clip-rule="evenodd" d="M4.10547 18.8492C4.10547 18.076 4.73227 17.4492 5.50547 17.4492H18.1401C18.9133 17.4492 19.5401 18.076 19.5401 18.8492C19.5401 19.6224 18.9133 20.2492 18.1401 20.2492H5.50547C4.73227 20.2492 4.10547 19.6224 4.10547 18.8492Z" fill="white"/>
<path fill-rule="evenodd" clip-rule="evenodd" d="M4.10547 7.4293C4.10547 6.6561 4.73227 6.0293 5.50547 6.0293H10.1087C10.8819 6.0293 11.5087 6.6561 11.5087 7.4293C11.5087 8.2025 10.8819 8.8293 10.1087 8.8293H5.50547C4.73227 8.8293 4.10547 8.2025 4.10547 7.4293Z" fill="white"/>
<path fill-rule="evenodd" clip-rule="evenodd" d="M4.10547 13.0211C4.10547 12.2479 4.73227 11.6211 5.50547 11.6211H8.71129C9.48448 11.6211 10.1113 12.2479 10.1113 13.0211C10.1113 13.7943 9.48448 14.4211 8.71129 14.4211H5.50547C4.73227 14.4211 4.10547 13.7943 4.10547 13.0211Z" fill="white"/>
<path fill-rule="evenodd" clip-rule="evenodd" d="M12.1367 7.4293C12.1367 6.6561 12.7635 6.0293 13.5367 6.0293H18.14C18.9132 6.0293 19.54 6.6561 19.54 7.4293C19.54 8.2025 18.9132 8.8293 18.14 8.8293H13.5367C12.7635 8.8293 12.1367 8.2025 12.1367 7.4293Z" fill="white"/>
<path fill-rule="evenodd" clip-rule="evenodd" d="M12.1367 13.0211C12.1367 12.2479 12.7635 11.6211 13.5367 11.6211H18.14C18.9132 11.6211 19.54 12.2479 19.54 13.0211C19.54 13.7943 18.9132 14.4211 18.14 14.4211H13.5367C12.7635 14.4211 12.1367 13.7943 12.1367 13.0211Z" fill="white"/>
<path d="M30.8112 7.65363C30.8112 8.65752 29.9974 9.47133 28.9935 9.47133C27.9896 9.47133 27.1758 8.65752 27.1758 7.65363C27.1758 6.64975 27.9896 5.83594 28.9935 5.83594C29.9974 5.83594 30.8112 6.64975 30.8112 7.65363Z" fill="#8AB4F8"/>
</svg>
