<svg width="24" height="24" viewBox="0 0 24 24" fill="none" xmlns="http://www.w3.org/2000/svg">
<path d="M1.6 0C0.716344 0 0 0.716345 0 1.6V15.1217H12.9407V11.4644V0H1.6Z" fill="black"/>
<path fill-rule="evenodd" clip-rule="evenodd" d="M1.6 15.9217L1.6 17.0963H22.2897V15.9217H1.6ZM23.8897 17.0963C23.8897 17.9799 23.1734 18.6963 22.2897 18.6963H1.6C0.716343 18.6963 0 17.9799 0 17.0963V1.6C0 0.716345 0.716344 0 1.6 0H22.2897C23.1734 0 23.8897 0.716344 23.8897 1.6V17.0963ZM22.2897 11.8043V14.3217H13.7407V11.7121C14.1269 11.1689 14.7641 10.4274 15.5418 9.80191C16.4281 9.08906 17.3962 8.60704 18.3191 8.60704C19.4313 8.60704 20.1071 9.19222 20.8331 10.0742C20.9487 10.2146 21.0747 10.375 21.2066 10.5429C21.4542 10.858 21.7225 11.1995 21.9815 11.485C22.0791 11.5924 22.1815 11.6996 22.2897 11.8043ZM22.2897 9.33112V1.6H13.7407V9.26672C13.988 9.024 14.2552 8.78345 14.5391 8.55515C15.5474 7.74413 16.8669 7.00704 18.3191 7.00704C20.1758 7.00704 21.2627 8.07841 22.0684 9.05736C22.1464 9.15208 22.2197 9.24311 22.2897 9.33112ZM12.1407 1.6H1.6V14.3217H12.1407V1.6Z" fill="black"/>
<path fill-rule="evenodd" clip-rule="evenodd" d="M9.2005 17.8965H14.4471L15.744 21.8669H17.0442V23.4669H6.72461V21.8669H7.94398L9.2005 17.8965ZM9.6222 21.8669H14.0608L13.2865 19.4965H10.3724L9.6222 21.8669Z" fill="black"/>
<path fill-rule="evenodd" clip-rule="evenodd" d="M2.3457 10.7707C2.3457 10.3289 2.70388 9.9707 3.1457 9.9707H10.3655C10.8073 9.9707 11.1655 10.3289 11.1655 10.7707C11.1655 11.2125 10.8073 11.5707 10.3655 11.5707H3.1457C2.70388 11.5707 2.3457 11.2125 2.3457 10.7707Z" fill="white"/>
<path fill-rule="evenodd" clip-rule="evenodd" d="M2.3457 4.24531C2.3457 3.80348 2.70388 3.44531 3.1457 3.44531H5.77614C6.21796 3.44531 6.57614 3.80348 6.57614 4.24531C6.57614 4.68714 6.21796 5.04531 5.77614 5.04531H3.1457C2.70388 5.04531 2.3457 4.68714 2.3457 4.24531Z" fill="white"/>
<path fill-rule="evenodd" clip-rule="evenodd" d="M2.3457 7.44063C2.3457 6.9988 2.70388 6.64062 3.1457 6.64062H4.9776C5.41943 6.64062 5.7776 6.9988 5.7776 7.44063C5.7776 7.88245 5.41943 8.24063 4.9776 8.24063H3.1457C2.70388 8.24063 2.3457 7.88245 2.3457 7.44063Z" fill="white"/>
<path fill-rule="evenodd" clip-rule="evenodd" d="M6.93555 4.24531C6.93555 3.80348 7.29372 3.44531 7.73555 3.44531H10.366C10.8078 3.44531 11.166 3.80348 11.166 4.24531C11.166 4.68714 10.8078 5.04531 10.366 5.04531H7.73555C7.29372 5.04531 6.93555 4.68714 6.93555 4.24531Z" fill="white"/>
<path fill-rule="evenodd" clip-rule="evenodd" d="M6.93555 7.44063C6.93555 6.9988 7.29372 6.64062 7.73555 6.64062H10.366C10.8078 6.64062 11.166 6.9988 11.166 7.44063C11.166 7.88245 10.8078 8.24063 10.366 8.24063H7.73555C7.29372 8.24063 6.93555 7.88245 6.93555 7.44063Z" fill="white"/>
<path d="M17.6067 4.37462C17.6067 4.94827 17.1416 5.4133 16.568 5.4133C15.9943 5.4133 15.5293 4.94827 15.5293 4.37462C15.5293 3.80097 15.9943 3.33594 16.568 3.33594C17.1416 3.33594 17.6067 3.80097 17.6067 4.37462Z" fill="black"/>
</svg>
