<svg width="56" height="56" viewBox="0 0 56 56" fill="none" xmlns="http://www.w3.org/2000/svg">
<path fill-rule="evenodd" clip-rule="evenodd" d="M29.4622 13.0044C29.4632 12.9667 29.4637 12.9289 29.4637 12.891C29.4637 10.604 27.5989 8.75 25.2985 8.75C23.6429 8.75 22.2129 9.71033 21.5413 11.1013C21.0363 10.8849 20.4796 10.7651 19.8947 10.7651C17.5943 10.7651 15.7295 12.6191 15.7295 14.9061C15.7295 15.1752 15.7553 15.4382 15.8046 15.693C15.7425 15.6903 15.6799 15.6889 15.6171 15.6889C13.3167 15.6889 11.4519 17.5429 11.4519 19.8299C11.4519 20.8026 11.7893 21.697 12.354 22.4037C10.2377 23.2804 8.75 25.3566 8.75 27.7782C8.75 30.2525 10.3032 32.3662 12.4931 33.2081C11.8451 33.9381 11.4519 34.8969 11.4519 35.9471C11.4519 38.2341 13.3167 40.0881 15.6171 40.0881C15.6674 40.0881 15.7175 40.0872 15.7674 40.0854C15.7424 40.2689 15.7295 40.4563 15.7295 40.6466C15.7295 42.9336 17.5943 44.7876 19.8947 44.7876C20.4178 44.7876 20.9184 44.6917 21.3797 44.5167C21.9588 46.1114 23.4948 47.2513 25.2985 47.2513C27.4851 47.2513 29.2782 45.5761 29.4502 43.4463H29.4622V43.2212C29.4632 43.1844 29.4637 43.1474 29.4637 43.1103C29.4637 43.0732 29.4632 43.0362 29.4622 42.9993V34.0417H33.0344C33.4524 34.0417 33.8533 34.2067 34.1488 34.5006L36.9155 37.2512C36.615 37.7531 36.4424 38.3396 36.4424 38.9661C36.4424 40.8204 37.9544 42.3237 39.8196 42.3237C41.6847 42.3237 43.1968 40.8204 43.1968 38.9661C43.1968 37.1118 41.6847 35.6086 39.8196 35.6086C39.0736 35.6086 38.3841 35.849 37.8252 36.2563L35.104 33.5509C34.5551 33.0052 33.8107 32.6986 33.0344 32.6986H29.4622V28.6696H40.5632C40.8751 30.2033 42.2386 31.358 43.8733 31.358C45.7385 31.358 47.2505 29.8548 47.2505 28.0005C47.2505 26.1461 45.7385 24.6429 43.8733 24.6429C42.2403 24.6429 40.878 25.7952 40.5641 27.3266H29.4622V23.1856H33.147C33.9232 23.1856 34.6677 22.879 35.2166 22.3333L37.8244 19.7407C38.3834 20.1483 39.0732 20.389 39.8196 20.389C41.6847 20.389 43.1968 18.8857 43.1968 17.0314C43.1968 15.1771 41.6847 13.6738 39.8196 13.6738C37.9544 13.6738 36.4424 15.1771 36.4424 17.0314C36.4424 17.6576 36.6148 18.2437 36.915 18.7454L34.2614 21.3836C33.9658 21.6775 33.565 21.8425 33.147 21.8425H29.4622V13.0044H29.4622Z" fill="#8AB4F8"/>
</svg>
