<svg width="56" height="56" viewBox="0 0 56 56" fill="none" xmlns="http://www.w3.org/2000/svg">
<path fill-rule="evenodd" clip-rule="evenodd" d="M31.9268 10.7561C31.9268 12.5367 30.6877 14.028 29.0247 14.4146V15.1951L29.0245 15.2338C29.0452 16.6304 30.1838 17.756 31.5852 17.756H34.9998C37.3571 17.756 39.2681 19.667 39.2681 22.0243V22.7962C41.1214 23.1889 42.512 24.8344 42.512 26.8047C42.512 28.7747 41.1217 30.4201 39.2688 30.813V31.1247C39.2962 32.421 40.3556 33.4634 41.6585 33.4634C43.9215 33.4634 45.756 35.2979 45.756 37.5609V39.5278C47.6093 39.9205 48.9999 41.566 48.9999 43.5363C48.9999 45.7993 47.1654 47.6338 44.9024 47.6338C42.6394 47.6338 40.8049 45.7993 40.8049 43.5363C40.8049 41.566 42.1954 39.9206 44.0487 39.5278V37.5609C44.0487 36.2408 42.9786 35.1707 41.6585 35.1707C40.4645 35.1707 39.3899 34.66 38.641 33.8452C38.0505 34.649 37.0987 35.1707 36.0249 35.1707C35.1763 35.1707 34.4883 35.8586 34.4883 36.7072V39.528C36.3411 39.9211 37.7312 41.5664 37.7312 43.5363C37.7312 45.7993 35.8967 47.6338 33.6337 47.6338C31.3707 47.6338 29.5362 45.7993 29.5362 43.5363C29.5362 41.5657 30.9273 39.92 32.781 39.5276V36.7072C32.781 34.9157 34.2334 33.4634 36.0249 33.4634C36.8735 33.4634 37.5615 32.7754 37.5615 31.9268V31.1406C37.5611 31.1181 37.5609 31.0957 37.5609 31.0731V30.9023H37.5608V30.8132C35.7075 30.4204 34.3169 28.775 34.3169 26.8047C34.3169 24.8344 35.7075 23.189 37.5608 22.7962V22.0243C37.5608 20.6099 36.4142 19.4634 34.9998 19.4634H31.5852C30.1891 19.4634 28.9496 18.7931 28.1708 17.7568C27.3921 18.7931 26.1525 19.4634 24.7564 19.4634H21.3418C19.9274 19.4634 18.7809 20.6099 18.7809 22.0243V22.7962C20.6341 23.189 22.0247 24.8345 22.0247 26.8047C22.0247 28.7749 20.6341 30.4204 18.7809 30.8132V30.9023H18.7807V31.9268C18.7807 32.7754 19.4687 33.4634 20.3173 33.4634C22.1089 33.4634 23.5612 34.9157 23.5612 36.7072V39.6158C25.2413 40.1272 26.4637 41.689 26.4637 43.5363C26.4637 45.7993 24.6292 47.6338 22.3662 47.6338C20.1032 47.6338 18.2687 45.7993 18.2687 43.5363C18.2687 41.4468 19.8327 39.7226 21.8539 39.4705V36.7072C21.8539 35.8586 21.1659 35.1707 20.3173 35.1707C19.2175 35.1707 18.2456 34.6234 17.6589 33.7862C16.8787 34.6372 15.7577 35.1707 14.5122 35.1707C13.0978 35.1707 11.9513 36.3172 11.9513 37.7316V39.5278C13.8045 39.9206 15.1951 41.5661 15.1951 43.5363C15.1951 45.7993 13.3605 47.6338 11.0975 47.6338C8.83453 47.6338 7 45.7993 7 43.5363C7 41.566 8.39065 39.9205 10.244 39.5278V37.7316C10.244 35.3743 12.1549 33.4634 14.5122 33.4634C15.9266 33.4634 17.0732 32.3168 17.0732 30.9024V30.8131C15.2201 30.4203 13.8296 28.7749 13.8296 26.8047C13.8296 24.8344 15.2202 23.1889 17.0736 22.7962V22.0243C17.0736 19.667 18.9845 17.756 21.3418 17.756H24.7564C26.1579 17.756 27.2964 16.6303 27.3171 15.2338L27.3169 15.1951V14.4147C25.6538 14.0281 24.4146 12.5368 24.4146 10.7561C24.4146 8.68165 26.0963 7 28.1707 7C30.2451 7 31.9268 8.68165 31.9268 10.7561Z" fill="#8AB4F8"/>
</svg>
