<svg width="56" height="56" viewBox="0 0 56 56" fill="none" xmlns="http://www.w3.org/2000/svg">
<path d="M30.2172 44.5673L47.0304 44.5673L47.0304 43.6309L45.8719 43.6309L45.8719 40.7945L44.7533 40.7945L44.7533 36.2403L44.0342 36.2403L44.0343 30.0084L41.7172 30.0084L41.7172 27.971L39.0407 27.971L39.0407 24.2957L31.8499 24.2957L31.8499 22.4581L30.971 22.4581L30.971 18.2634L30.2172 18.2634L30.2172 44.5673Z" fill="#8AB4F8"/>
<path fill-rule="evenodd" clip-rule="evenodd" d="M31.0171 10.5L31.0171 17.4655L31.771 17.4655L31.771 21.6601L32.6499 21.6601L32.6499 23.4977L39.8406 23.4977L39.8406 27.173L42.5172 27.173L42.5172 29.2104L44.8342 29.2104L44.8342 35.4424L45.5533 35.4424L45.5533 39.9965L46.6719 39.9965L46.6719 42.8329L47.8304 42.8329L47.8304 43.7694L48.2011 43.7694C48.6423 43.7694 49 44.1271 49 44.5683C49 45.0095 48.6423 45.3672 48.2011 45.3672L7.7989 45.3672C7.35768 45.3672 7 45.0095 7 44.5683C7 44.1529 7.31707 43.8115 7.72241 43.773L7.72241 40.8723L8.87161 40.8723L8.87161 37.1487L10.6184 37.1487L10.6184 30.2076L13.1926 30.2076L13.1926 27.3117L16.2265 27.3117L16.2265 23.9562L18.2951 23.9562L18.2951 22.2555L26.2475 22.2555L26.2475 20.8305L27.2129 20.8305L27.2129 16.097L27.8564 16.097L27.8564 14.3503L28.7758 14.3503L28.7758 10.5L31.0171 10.5ZM29.4193 17.6949L28.8107 17.6949L28.8107 22.4284L27.8454 22.4284L27.8454 23.8533L19.8929 23.8533L19.8929 25.554L17.8243 25.554L17.8243 28.9095L14.7904 28.9095L14.7904 31.8054L12.2162 31.8054L12.2162 38.7465L10.4694 38.7465L10.4694 42.4701L9.32022 42.4701L9.32022 43.7694L29.4193 43.7694L29.4193 17.6949ZM31.0171 43.7694L45.074 43.7694L45.074 41.5943L43.9555 41.5943L43.9555 37.0402L43.2364 37.0402L43.2364 30.8082L40.9194 30.8082L40.9194 28.7708L38.2428 28.7708L38.2428 25.0955L31.0521 25.0955L31.0521 23.2579L31.0171 23.2579L31.0171 43.7694Z" fill="#8AB4F8"/>
<path fill-rule="evenodd" clip-rule="evenodd" d="M26.6223 26.0704C26.6223 25.7763 26.8608 25.5378 27.1549 25.5378H27.9999C28.2941 25.5378 28.5325 25.7763 28.5325 26.0704C28.5325 26.3646 28.2941 26.6031 27.9999 26.6031H27.1549C26.8608 26.6031 26.6223 26.3646 26.6223 26.0704Z" fill="#8AB4F8"/>
<path fill-rule="evenodd" clip-rule="evenodd" d="M33.293 26.0704C33.293 25.7763 33.5314 25.5378 33.8256 25.5378H34.6706C34.9647 25.5378 35.2032 25.7763 35.2032 26.0704C35.2032 26.3646 34.9647 26.6031 34.6706 26.6031H33.8256C33.5314 26.6031 33.293 26.3646 33.293 26.0704Z" fill="white"/>
<path fill-rule="evenodd" clip-rule="evenodd" d="M21.7395 26.0704C21.7395 25.7763 21.978 25.5378 22.2721 25.5378H23.1171C23.4113 25.5378 23.6497 25.7763 23.6497 26.0704C23.6497 26.3646 23.4113 26.6031 23.1171 26.6031H22.2721C21.978 26.6031 21.7395 26.3646 21.7395 26.0704Z" fill="#8AB4F8"/>
<path fill-rule="evenodd" clip-rule="evenodd" d="M26.6223 29.113C26.6223 28.8189 26.8608 28.5804 27.1549 28.5804H27.9999C28.2941 28.5804 28.5325 28.8189 28.5325 29.113C28.5325 29.4072 28.2941 29.6457 27.9999 29.6457H27.1549C26.8608 29.6457 26.6223 29.4072 26.6223 29.113Z" fill="#8AB4F8"/>
<path fill-rule="evenodd" clip-rule="evenodd" d="M33.293 29.113C33.293 28.8189 33.5314 28.5804 33.8256 28.5804H34.6706C34.9647 28.5804 35.2032 28.8189 35.2032 29.113C35.2032 29.4072 34.9647 29.6457 34.6706 29.6457H33.8256C33.5314 29.6457 33.293 29.4072 33.293 29.113Z" fill="white"/>
<path fill-rule="evenodd" clip-rule="evenodd" d="M21.7395 29.113C21.7395 28.8189 21.978 28.5804 22.2721 28.5804H23.1171C23.4113 28.5804 23.6497 28.8189 23.6497 29.113C23.6497 29.4072 23.4113 29.6457 23.1171 29.6457H22.2721C21.978 29.6457 21.7395 29.4072 21.7395 29.113Z" fill="#8AB4F8"/>
<path fill-rule="evenodd" clip-rule="evenodd" d="M26.6223 32.1631C26.6223 31.8689 26.8608 31.6305 27.1549 31.6305H27.9999C28.2941 31.6305 28.5325 31.8689 28.5325 32.1631C28.5325 32.4572 28.2941 32.6957 27.9999 32.6957H27.1549C26.8608 32.6957 26.6223 32.4572 26.6223 32.1631Z" fill="#8AB4F8"/>
<path fill-rule="evenodd" clip-rule="evenodd" d="M33.293 32.1631C33.293 31.8689 33.5314 31.6305 33.8256 31.6305H34.6706C34.9647 31.6305 35.2032 31.8689 35.2032 32.1631C35.2032 32.4572 34.9647 32.6957 34.6706 32.6957H33.8256C33.5314 32.6957 33.293 32.4572 33.293 32.1631Z" fill="white"/>
<path fill-rule="evenodd" clip-rule="evenodd" d="M38.6584 32.1631C38.6584 31.8689 38.8969 31.6305 39.1911 31.6305H40.0361C40.3302 31.6305 40.5687 31.8689 40.5687 32.1631C40.5687 32.4572 40.3302 32.6957 40.0361 32.6957H39.1911C38.8969 32.6957 38.6584 32.4572 38.6584 32.1631Z" fill="white"/>
<path fill-rule="evenodd" clip-rule="evenodd" d="M21.7395 32.1631C21.7395 31.8689 21.978 31.6305 22.2721 31.6305H23.1171C23.4113 31.6305 23.6497 31.8689 23.6497 32.1631C23.6497 32.4572 23.4113 32.6957 23.1171 32.6957H22.2721C21.978 32.6957 21.7395 32.4572 21.7395 32.1631Z" fill="#8AB4F8"/>
<path fill-rule="evenodd" clip-rule="evenodd" d="M16.6145 32.1631C16.6145 31.8689 16.853 31.6305 17.1471 31.6305H17.9921C18.2863 31.6305 18.5247 31.8689 18.5247 32.1631C18.5247 32.4572 18.2863 32.6957 17.9921 32.6957H17.1471C16.853 32.6957 16.6145 32.4572 16.6145 32.1631Z" fill="#8AB4F8"/>
<path fill-rule="evenodd" clip-rule="evenodd" d="M26.6223 34.721C26.6223 34.4268 26.8608 34.1884 27.1549 34.1884H27.9999C28.2941 34.1884 28.5325 34.4268 28.5325 34.721C28.5325 35.0151 28.2941 35.2536 27.9999 35.2536H27.1549C26.8608 35.2536 26.6223 35.0151 26.6223 34.721Z" fill="#8AB4F8"/>
<path fill-rule="evenodd" clip-rule="evenodd" d="M33.293 34.721C33.293 34.4268 33.5314 34.1884 33.8256 34.1884H34.6706C34.9647 34.1884 35.2032 34.4268 35.2032 34.721C35.2032 35.0151 34.9647 35.2536 34.6706 35.2536H33.8256C33.5314 35.2536 33.293 35.0151 33.293 34.721Z" fill="white"/>
<path fill-rule="evenodd" clip-rule="evenodd" d="M38.6584 34.721C38.6584 34.4268 38.8969 34.1884 39.1911 34.1884H40.0361C40.3302 34.1884 40.5687 34.4268 40.5687 34.721C40.5687 35.0151 40.3302 35.2536 40.0361 35.2536H39.1911C38.8969 35.2536 38.6584 35.0151 38.6584 34.721Z" fill="white"/>
<path fill-rule="evenodd" clip-rule="evenodd" d="M21.7395 34.721C21.7395 34.4268 21.978 34.1884 22.2721 34.1884H23.1171C23.4113 34.1884 23.6497 34.4268 23.6497 34.721C23.6497 35.0151 23.4113 35.2536 23.1171 35.2536H22.2721C21.978 35.2536 21.7395 35.0151 21.7395 34.721Z" fill="#8AB4F8"/>
<path fill-rule="evenodd" clip-rule="evenodd" d="M16.6145 34.721C16.6145 34.4268 16.853 34.1884 17.1471 34.1884H17.9921C18.2863 34.1884 18.5247 34.4268 18.5247 34.721C18.5247 35.0151 18.2863 35.2536 17.9921 35.2536H17.1471C16.853 35.2536 16.6145 35.0151 16.6145 34.721Z" fill="#8AB4F8"/>
<path fill-rule="evenodd" clip-rule="evenodd" d="M26.6223 37.7673C26.6223 37.4732 26.8608 37.2347 27.1549 37.2347H27.9999C28.2941 37.2347 28.5325 37.4732 28.5325 37.7673C28.5325 38.0615 28.2941 38.2999 27.9999 38.2999H27.1549C26.8608 38.2999 26.6223 38.0615 26.6223 37.7673Z" fill="#8AB4F8"/>
<path fill-rule="evenodd" clip-rule="evenodd" d="M33.293 37.7673C33.293 37.4732 33.5314 37.2347 33.8256 37.2347H34.6706C34.9647 37.2347 35.2032 37.4732 35.2032 37.7673C35.2032 38.0615 34.9647 38.2999 34.6706 38.2999H33.8256C33.5314 38.2999 33.293 38.0615 33.293 37.7673Z" fill="white"/>
<path fill-rule="evenodd" clip-rule="evenodd" d="M38.6584 37.7673C38.6584 37.4732 38.8969 37.2347 39.1911 37.2347H40.0361C40.3302 37.2347 40.5687 37.4732 40.5687 37.7673C40.5687 38.0615 40.3302 38.2999 40.0361 38.2999H39.1911C38.8969 38.2999 38.6584 38.0615 38.6584 37.7673Z" fill="white"/>
<path fill-rule="evenodd" clip-rule="evenodd" d="M21.7395 37.7673C21.7395 37.4732 21.978 37.2347 22.2721 37.2347H23.1171C23.4113 37.2347 23.6497 37.4732 23.6497 37.7673C23.6497 38.0615 23.4113 38.2999 23.1171 38.2999H22.2721C21.978 38.2999 21.7395 38.0615 21.7395 37.7673Z" fill="#8AB4F8"/>
<path fill-rule="evenodd" clip-rule="evenodd" d="M16.6145 37.7673C16.6145 37.4732 16.853 37.2347 17.1471 37.2347H17.9921C18.2863 37.2347 18.5247 37.4732 18.5247 37.7673C18.5247 38.0615 18.2863 38.2999 17.9921 38.2999H17.1471C16.853 38.2999 16.6145 38.0615 16.6145 37.7673Z" fill="#8AB4F8"/>
<path fill-rule="evenodd" clip-rule="evenodd" d="M26.6223 41.2947C26.6223 41.0005 26.8608 40.7621 27.1549 40.7621H27.9999C28.2941 40.7621 28.5325 41.0005 28.5325 41.2947C28.5325 41.5888 28.2941 41.8273 27.9999 41.8273H27.1549C26.8608 41.8273 26.6223 41.5888 26.6223 41.2947Z" fill="#8AB4F8"/>
<path fill-rule="evenodd" clip-rule="evenodd" d="M33.293 41.2947C33.293 41.0005 33.5314 40.7621 33.8256 40.7621H34.6706C34.9647 40.7621 35.2032 41.0005 35.2032 41.2947C35.2032 41.5888 34.9647 41.8273 34.6706 41.8273H33.8256C33.5314 41.8273 33.293 41.5888 33.293 41.2947Z" fill="white"/>
<path fill-rule="evenodd" clip-rule="evenodd" d="M38.6584 41.2947C38.6584 41.0005 38.8969 40.7621 39.1911 40.7621H40.0361C40.3302 40.7621 40.5687 41.0005 40.5687 41.2947C40.5687 41.5888 40.3302 41.8273 40.0361 41.8273H39.1911C38.8969 41.8273 38.6584 41.5888 38.6584 41.2947Z" fill="white"/>
<path fill-rule="evenodd" clip-rule="evenodd" d="M21.7395 41.2947C21.7395 41.0005 21.978 40.7621 22.2721 40.7621H23.1171C23.4113 40.7621 23.6497 41.0005 23.6497 41.2947C23.6497 41.5888 23.4113 41.8273 23.1171 41.8273H22.2721C21.978 41.8273 21.7395 41.5888 21.7395 41.2947Z" fill="#8AB4F8"/>
<path fill-rule="evenodd" clip-rule="evenodd" d="M16.6145 41.2947C16.6145 41.0005 16.853 40.7621 17.1471 40.7621H17.9921C18.2863 40.7621 18.5247 41.0005 18.5247 41.2947C18.5247 41.5888 18.2863 41.8273 17.9921 41.8273H17.1471C16.853 41.8273 16.6145 41.5888 16.6145 41.2947Z" fill="#8AB4F8"/>
</svg>
