<svg width="56" height="56" viewBox="0 0 56 56" fill="none" xmlns="http://www.w3.org/2000/svg">
<path d="M9.8 7C8.2536 7 7 8.2536 7 9.8V33.4629H29.6462V27.0626V7H9.8Z" fill="#8AB4F8"/>
<path fill-rule="evenodd" clip-rule="evenodd" d="M9.8 34.8629L9.8 36.9185H46.007V34.8629H9.8ZM48.807 36.9185C48.807 38.4649 47.5534 39.7185 46.007 39.7185H9.8C8.2536 39.7185 7 38.4649 7 36.9185V9.8C7 8.2536 8.2536 7 9.8 7H46.007C47.5534 7 48.807 8.2536 48.807 9.8V36.9185ZM46.007 27.6575V32.0629H31.0462V27.4961C31.7221 26.5456 32.8372 25.248 34.1982 24.1533C35.7492 22.9058 37.4433 22.0623 39.0585 22.0623C41.0048 22.0623 42.1875 23.0864 43.4579 24.6298C43.6602 24.8756 43.8808 25.1563 44.1116 25.4501C44.5448 26.0015 45.0143 26.5991 45.4677 27.0987C45.6384 27.2868 45.8177 27.4744 46.007 27.6575ZM46.007 23.3295V9.8H31.0462V23.2168C31.479 22.792 31.9466 22.371 32.4433 21.9715C34.2079 20.5522 36.5172 19.2623 39.0585 19.2623C42.3077 19.2623 44.2096 21.1372 45.6198 22.8504C45.7562 23.0161 45.8845 23.1754 46.007 23.3295ZM28.2462 9.8H9.8V32.0629H28.2462V9.8Z" fill="#8AB4F8"/>
<path fill-rule="evenodd" clip-rule="evenodd" d="M23.1018 38.3187H32.2833L34.5531 45.2669H36.8284V48.0669H18.769V45.2669H20.9029L23.1018 38.3187ZM23.8398 45.2669H31.6075L30.2524 41.1187H25.1526L23.8398 45.2669Z" fill="#8AB4F8"/>
<path fill-rule="evenodd" clip-rule="evenodd" d="M11.105 25.85C11.105 25.0768 11.7318 24.45 12.505 24.45H25.1396C25.9128 24.45 26.5396 25.0768 26.5396 25.85C26.5396 26.6232 25.9128 27.25 25.1396 27.25H12.505C11.7318 27.25 11.105 26.6232 11.105 25.85Z" fill="white"/>
<path fill-rule="evenodd" clip-rule="evenodd" d="M11.105 14.43C11.105 13.6568 11.7318 13.03 12.505 13.03H17.1082C17.8814 13.03 18.5082 13.6568 18.5082 14.43C18.5082 15.2032 17.8814 15.83 17.1082 15.83H12.505C11.7318 15.83 11.105 15.2032 11.105 14.43Z" fill="white"/>
<path fill-rule="evenodd" clip-rule="evenodd" d="M11.105 20.0218C11.105 19.2486 11.7318 18.6218 12.505 18.6218H15.7108C16.484 18.6218 17.1108 19.2486 17.1108 20.0218C17.1108 20.795 16.484 21.4218 15.7108 21.4218H12.505C11.7318 21.4218 11.105 20.795 11.105 20.0218Z" fill="white"/>
<path fill-rule="evenodd" clip-rule="evenodd" d="M19.1362 14.43C19.1362 13.6568 19.763 13.03 20.5362 13.03H25.1395C25.9127 13.03 26.5395 13.6568 26.5395 14.43C26.5395 15.2032 25.9127 15.83 25.1395 15.83H20.5362C19.763 15.83 19.1362 15.2032 19.1362 14.43Z" fill="white"/>
<path fill-rule="evenodd" clip-rule="evenodd" d="M19.1362 20.0218C19.1362 19.2486 19.763 18.6218 20.5362 18.6218H25.1395C25.9127 18.6218 26.5395 19.2486 26.5395 20.0218C26.5395 20.795 25.9127 21.4218 25.1395 21.4218H20.5362C19.763 21.4218 19.1362 20.795 19.1362 20.0218Z" fill="white"/>
<path d="M37.8119 14.654C37.8119 15.6579 36.9981 16.4717 35.9942 16.4717C34.9903 16.4717 34.1765 15.6579 34.1765 14.654C34.1765 13.6501 34.9903 12.8363 35.9942 12.8363C36.9981 12.8363 37.8119 13.6501 37.8119 14.654Z" fill="#8AB4F8"/>
</svg>
