<svg width="910" height="693" viewBox="0 0 910 693" fill="none" xmlns="http://www.w3.org/2000/svg">
<g opacity="0.6">
<path d="M36.4137 693C56.5245 693 72.8274 676.994 72.8274 657.25C72.8274 637.506 56.5245 621.5 36.4137 621.5C16.303 621.5 0 637.506 0 657.25C0 676.994 16.303 693 36.4137 693Z" fill="#8AB4F8"/>
<path d="M52.6315 596.988C67.07 596.988 78.7747 585.496 78.7747 571.321C78.7747 557.146 67.07 545.654 52.6315 545.654C38.193 545.654 26.4883 557.146 26.4883 571.321C26.4883 585.496 38.193 596.988 52.6315 596.988Z" fill="#8AB4F8"/>
<path d="M108.264 641.472C122.703 641.472 134.407 629.981 134.407 615.805C134.407 601.63 122.703 590.139 108.264 590.139C93.8258 590.139 82.1211 601.63 82.1211 615.805C82.1211 629.981 93.8258 641.472 108.264 641.472Z" fill="#8AB4F8"/>
<path d="M107.963 539.771C122.402 539.771 134.107 528.279 134.107 514.104C134.107 499.929 122.402 488.438 107.963 488.438C93.525 488.438 81.8203 499.929 81.8203 514.104C81.8203 528.279 93.525 539.771 107.963 539.771Z" fill="#8AB4F8"/>
<path d="M151.555 592.551C162.276 592.551 170.966 584.019 170.966 573.495C170.966 562.97 162.276 554.438 151.555 554.438C140.835 554.438 132.145 562.97 132.145 573.495C132.145 584.019 140.835 592.551 151.555 592.551Z" fill="#8AB4F8"/>
<path d="M164.38 534.223C175.1 534.223 183.79 525.691 183.79 515.166C183.79 504.641 175.1 496.109 164.38 496.109C153.659 496.109 144.969 504.641 144.969 515.166C144.969 525.691 153.659 534.223 164.38 534.223Z" fill="#8AB4F8"/>
<path d="M205.505 484.96C216.225 484.96 224.915 476.428 224.915 465.903C224.915 455.378 216.225 446.846 205.505 446.846C194.784 446.846 186.094 455.378 186.094 465.903C186.094 476.428 194.784 484.96 205.505 484.96Z" fill="#8AB4F8"/>
<path d="M168.364 450.366C179.084 450.366 187.775 441.834 187.775 431.309C187.775 420.784 179.084 412.252 168.364 412.252C157.644 412.252 148.953 420.784 148.953 431.309C148.953 441.834 157.644 450.366 168.364 450.366Z" fill="#8AB4F8"/>
<path d="M229.051 431.126C239.772 431.126 248.462 422.594 248.462 412.069C248.462 401.544 239.772 393.012 229.051 393.012C218.331 393.012 209.641 401.544 209.641 412.069C209.641 422.594 218.331 431.126 229.051 431.126Z" fill="#8AB4F8"/>
<path d="M209.926 382.538C218.584 382.538 225.602 375.648 225.602 367.148C225.602 358.648 218.584 351.758 209.926 351.758C201.268 351.758 194.25 358.648 194.25 367.148C194.25 375.648 201.268 382.538 209.926 382.538Z" fill="#8AB4F8"/>
<path d="M257.008 365.41C265.666 365.41 272.684 358.519 272.684 350.019C272.684 341.519 265.666 334.629 257.008 334.629C248.35 334.629 241.332 341.519 241.332 350.019C241.332 358.519 248.35 365.41 257.008 365.41Z" fill="#8AB4F8"/>
<path d="M284.582 319.234C293.24 319.234 300.258 312.343 300.258 303.843C300.258 295.344 293.24 288.453 284.582 288.453C275.925 288.453 268.906 295.344 268.906 303.843C268.906 312.343 275.925 319.234 284.582 319.234Z" fill="#8AB4F8"/>
<path d="M311.453 364.589C320.111 364.589 327.13 357.699 327.13 349.199C327.13 340.699 320.111 333.809 311.453 333.809C302.796 333.809 295.777 340.699 295.777 349.199C295.777 357.699 302.796 364.589 311.453 364.589Z" fill="#8AB4F8"/>
<path d="M341.821 335.163C350.478 335.163 357.497 328.273 357.497 319.773C357.497 311.273 350.478 304.383 341.821 304.383C333.163 304.383 326.145 311.273 326.145 319.773C326.145 328.273 333.163 335.163 341.821 335.163Z" fill="#8AB4F8"/>
<path d="M315.785 281.468C324.443 281.468 331.462 274.578 331.462 266.078C331.462 257.578 324.443 250.688 315.785 250.688C307.128 250.688 300.109 257.578 300.109 266.078C300.109 274.578 307.128 281.468 315.785 281.468Z" fill="#8AB4F8"/>
<path d="M377.602 297.044C386.259 297.044 393.278 290.154 393.278 281.654C393.278 273.154 386.259 266.264 377.602 266.264C368.944 266.264 361.926 273.154 361.926 281.654C361.926 290.154 368.944 297.044 377.602 297.044Z" fill="#8AB4F8"/>
<path d="M415.832 277.314C424.49 277.314 431.508 270.423 431.508 261.924C431.508 253.424 424.49 246.533 415.832 246.533C407.175 246.533 400.156 253.424 400.156 261.924C400.156 270.423 407.175 277.314 415.832 277.314Z" fill="#8AB4F8"/>
<path d="M406.84 228.341C415.498 228.341 422.516 221.451 422.516 212.951C422.516 204.451 415.498 197.561 406.84 197.561C398.182 197.561 391.164 204.451 391.164 212.951C391.164 221.451 398.182 228.341 406.84 228.341Z" fill="#8AB4F8"/>
<path d="M473.774 219.228C482.431 219.228 489.45 212.337 489.45 203.838C489.45 195.338 482.431 188.447 473.774 188.447C465.116 188.447 458.098 195.338 458.098 203.838C458.098 212.337 465.116 219.228 473.774 219.228Z" fill="#8AB4F8"/>
<path d="M525.422 191.056C534.08 191.056 541.098 184.166 541.098 175.666C541.098 167.166 534.08 160.275 525.422 160.275C516.764 160.275 509.746 167.166 509.746 175.666C509.746 184.166 516.764 191.056 525.422 191.056Z" fill="#8AB4F8"/>
<path d="M566.012 199.734C574.67 199.734 581.688 192.843 581.688 184.343C581.688 175.844 574.67 168.953 566.012 168.953C557.354 168.953 550.336 175.844 550.336 184.343C550.336 192.843 557.354 199.734 566.012 199.734Z" fill="#8AB4F8"/>
<path d="M573.524 153.279C582.181 153.279 589.2 146.388 589.2 137.888C589.2 129.389 582.181 122.498 573.524 122.498C564.866 122.498 557.848 129.389 557.848 137.888C557.848 146.388 564.866 153.279 573.524 153.279Z" fill="#8AB4F8"/>
<path d="M605.419 126.211C612.068 126.211 617.458 120.919 617.458 114.39C617.458 107.862 612.068 102.57 605.419 102.57C598.769 102.57 593.379 107.862 593.379 114.39C593.379 120.919 598.769 126.211 605.419 126.211Z" fill="#8AB4F8"/>
<path d="M531.317 145.849C537.966 145.849 543.357 140.557 543.357 134.029C543.357 127.501 537.966 122.209 531.317 122.209C524.668 122.209 519.277 127.501 519.277 134.029C519.277 140.557 524.668 145.849 531.317 145.849Z" fill="#8AB4F8"/>
<path d="M608.961 176.963C615.611 176.963 621.001 171.671 621.001 165.142C621.001 158.614 615.611 153.322 608.961 153.322C602.312 153.322 596.922 158.614 596.922 165.142C596.922 171.671 602.312 176.963 608.961 176.963Z" fill="#8AB4F8"/>
<path d="M655.79 162.593C662.439 162.593 667.829 157.301 667.829 150.773C667.829 144.245 662.439 138.953 655.79 138.953C649.14 138.953 643.75 144.245 643.75 150.773C643.75 157.301 649.14 162.593 655.79 162.593Z" fill="#8AB4F8"/>
<path d="M642.083 130.986C648.732 130.986 654.122 125.694 654.122 119.166C654.122 112.638 648.732 107.346 642.083 107.346C635.433 107.346 630.043 112.638 630.043 119.166C630.043 125.694 635.433 130.986 642.083 130.986Z" fill="#8AB4F8"/>
<path d="M672.993 110.529C679.642 110.529 685.032 105.237 685.032 98.7088C685.032 92.1807 679.642 86.8887 672.993 86.8887C666.343 86.8887 660.953 92.1807 660.953 98.7088C660.953 105.237 666.343 110.529 672.993 110.529Z" fill="#8AB4F8"/>
<path d="M695.247 143.291C701.896 143.291 707.286 137.999 707.286 131.471C707.286 124.942 701.896 119.65 695.247 119.65C688.597 119.65 683.207 124.942 683.207 131.471C683.207 137.999 688.597 143.291 695.247 143.291Z" fill="#8AB4F8"/>
<path d="M704.983 105.613C710.764 105.613 715.45 101.012 715.45 95.3369C715.45 89.6614 710.764 85.0605 704.983 85.0605C699.202 85.0605 694.516 89.6614 694.516 95.3369C694.516 101.012 699.202 105.613 704.983 105.613Z" fill="#8AB4F8"/>
<path d="M730.045 123.264C735.826 123.264 740.512 118.663 740.512 112.987C740.512 107.312 735.826 102.711 730.045 102.711C724.264 102.711 719.578 107.312 719.578 112.987C719.578 118.663 724.264 123.264 730.045 123.264Z" fill="#8AB4F8"/>
<path d="M736.088 92.8729C741.869 92.8729 746.555 88.2721 746.555 82.5966C746.555 76.9212 741.869 72.3203 736.088 72.3203C730.307 72.3203 725.621 76.9212 725.621 82.5966C725.621 88.2721 730.307 92.8729 736.088 92.8729Z" fill="#8AB4F8"/>
<path d="M766.509 119.36C771.72 119.36 775.944 115.213 775.944 110.097C775.944 104.981 771.72 100.834 766.509 100.834C761.298 100.834 757.074 104.981 757.074 110.097C757.074 115.213 761.298 119.36 766.509 119.36Z" fill="#8AB4F8"/>
<path d="M765.865 83.5165C771.076 83.5165 775.3 79.3693 775.3 74.2534C775.3 69.1375 771.076 64.9902 765.865 64.9902C760.654 64.9902 756.43 69.1375 756.43 74.2534C756.43 79.3693 760.654 83.5165 765.865 83.5165Z" fill="#8AB4F8"/>
<path d="M787.634 99.1962C792.845 99.1962 797.069 95.049 797.069 89.9331C797.069 84.8172 792.845 80.6699 787.634 80.6699C782.423 80.6699 778.199 84.8172 778.199 89.9331C778.199 95.049 782.423 99.1962 787.634 99.1962Z" fill="#8AB4F8"/>
<path d="M792.263 70.6337C797.474 70.6337 801.698 66.4865 801.698 61.3706C801.698 56.2547 797.474 52.1074 792.263 52.1074C787.052 52.1074 782.828 56.2547 782.828 61.3706C782.828 66.4865 787.052 70.6337 792.263 70.6337Z" fill="#8AB4F8"/>
<path d="M820.123 80.2275C825.334 80.2275 829.558 76.0802 829.558 70.9643C829.558 65.8484 825.334 61.7012 820.123 61.7012C814.912 61.7012 810.688 65.8484 810.688 70.9643C810.688 76.0802 814.912 80.2275 820.123 80.2275Z" fill="#8AB4F8"/>
<path d="M824.443 55.0497C829.654 55.0497 833.878 50.9025 833.878 45.7866C833.878 40.6707 829.654 36.5234 824.443 36.5234C819.232 36.5234 815.008 40.6707 815.008 45.7866C815.008 50.9025 819.232 55.0497 824.443 55.0497Z" fill="#8AB4F8"/>
<path d="M853.341 61.8505C858.552 61.8505 862.777 57.7033 862.777 52.5874C862.777 47.4715 858.552 43.3242 853.341 43.3242C848.13 43.3242 843.906 47.4715 843.906 52.5874C843.906 57.7033 848.13 61.8505 853.341 61.8505Z" fill="#8AB4F8"/>
<path d="M851.814 32.9989C857.025 32.9989 861.249 28.8517 861.249 23.7358C861.249 18.6199 857.025 14.4727 851.814 14.4727C846.603 14.4727 842.379 18.6199 842.379 23.7358C842.379 28.8517 846.603 32.9989 851.814 32.9989Z" fill="#8AB4F8"/>
<path d="M875.599 36.9091C880.81 36.9091 885.034 32.7618 885.034 27.646C885.034 22.5301 880.81 18.3828 875.599 18.3828C870.388 18.3828 866.164 22.5301 866.164 27.646C866.164 32.7618 870.388 36.9091 875.599 36.9091Z" fill="#8AB4F8"/>
<path d="M900.564 18.5263C905.775 18.5263 909.999 14.379 909.999 9.26314C909.999 4.14725 905.775 0 900.564 0C895.353 0 891.129 4.14725 891.129 9.26314C891.129 14.379 895.353 18.5263 900.564 18.5263Z" fill="#8AB4F8"/>
<path d="M477.213 161.766C484.351 161.766 490.137 156.085 490.137 149.077C490.137 142.07 484.351 136.389 477.213 136.389C470.075 136.389 464.289 142.07 464.289 149.077C464.289 156.085 470.075 161.766 477.213 161.766Z" fill="#8AB4F8"/>
<path d="M439.916 191.145C447.054 191.145 452.841 185.464 452.841 178.456C452.841 171.448 447.054 165.768 439.916 165.768C432.779 165.768 426.992 171.448 426.992 178.456C426.992 185.464 432.779 191.145 439.916 191.145Z" fill="#8AB4F8"/>
<path d="M443.694 246.967C450.832 246.967 456.618 241.286 456.618 234.278C456.618 227.271 450.832 221.59 443.694 221.59C436.556 221.59 430.77 227.271 430.77 234.278C430.77 241.286 436.556 246.967 443.694 246.967Z" fill="#8AB4F8"/>
<path d="M350.674 245.186C357.812 245.186 363.598 239.505 363.598 232.497C363.598 225.489 357.812 219.809 350.674 219.809C343.536 219.809 337.75 225.489 337.75 232.497C337.75 239.505 343.536 245.186 350.674 245.186Z" fill="#8AB4F8"/>
<path d="M280.936 399.571C288.074 399.571 293.86 393.89 293.86 386.882C293.86 379.874 288.074 374.193 280.936 374.193C273.798 374.193 268.012 379.874 268.012 386.882C268.012 393.89 273.798 399.571 280.936 399.571Z" fill="#8AB4F8"/>
</g>
</svg>
