<svg width="50" height="46" viewBox="0 0 50 46" fill="none" xmlns="http://www.w3.org/2000/svg">
<path d="M48.5406 15.9383L26.0406 0.938328C25.7325 0.732754 25.3704 0.623047 25 0.623047C24.6296 0.623047 24.2675 0.732754 23.9594 0.938328L1.45938 15.9383C1.20253 16.1097 0.991971 16.3418 0.846414 16.6141C0.700856 16.8865 0.6248 17.1905 0.625 17.4993V41.8743C0.625 42.8688 1.02009 43.8227 1.72335 44.5259C2.42661 45.2292 3.38044 45.6243 4.375 45.6243H45.625C46.6196 45.6243 47.5734 45.2292 48.2766 44.5259C48.9799 43.8227 49.375 42.8688 49.375 41.8743V17.4993C49.3752 17.1905 49.2991 16.8865 49.1536 16.6141C49.008 16.3418 48.7975 16.1097 48.5406 15.9383ZM25 4.75161L44.1977 17.5508L28.4945 28.7493H21.5102L5.80703 17.5508L25 4.75161ZM4.375 41.8743V21.1391L19.8203 32.1547C20.1383 32.3819 20.5194 32.504 20.9102 32.504H29.0898C29.4806 32.504 29.8617 32.3819 30.1797 32.1547L45.625 21.1391V41.8743H4.375Z" fill="#8AB4F8"/>
</svg>
