<svg width="53" height="38" viewBox="0 0 53 38" fill="none" xmlns="http://www.w3.org/2000/svg">
<path d="M52.4789 17.9594L41.7773 1.92109C41.4367 1.4074 40.9742 0.985981 40.4311 0.694406C39.888 0.402831 39.2812 0.250159 38.6648 0.25H4.04297C3.04841 0.25 2.09458 0.645088 1.39132 1.34835C0.688057 2.05161 0.292969 3.00544 0.292969 4V34C0.292969 34.9946 0.688057 35.9484 1.39132 36.6516C2.09458 37.3549 3.04841 37.75 4.04297 37.75H38.6648C39.2808 37.7489 39.887 37.596 40.4298 37.305C40.9727 37.0139 41.4355 36.5936 41.7773 36.0813L52.4719 20.0406C52.6785 19.7332 52.7894 19.3715 52.7907 19.0011C52.7919 18.6307 52.6834 18.2682 52.4789 17.9594ZM38.6648 34H4.04297V4H38.6648L48.6633 19L38.6648 34Z" fill="#8AB4F8"/>
</svg>
