<svg width="46" height="46" viewBox="0 0 46 46" fill="none" xmlns="http://www.w3.org/2000/svg">
<path d="M45.8331 4.25V41.75C45.8331 42.7446 45.438 43.6984 44.7347 44.4016C44.0315 45.1049 43.0776 45.5 42.0831 45.5H25.2081C24.7108 45.5 24.2339 45.3025 23.8822 44.9508C23.5306 44.5992 23.3331 44.1223 23.3331 43.625C23.3331 43.1277 23.5306 42.6508 23.8822 42.2992C24.2339 41.9475 24.7108 41.75 25.2081 41.75H42.0831V4.25H4.58307V26.75C4.58307 27.2473 4.38553 27.7242 4.0339 28.0758C3.68227 28.4275 3.20535 28.625 2.70807 28.625C2.21079 28.625 1.73388 28.4275 1.38225 28.0758C1.03062 27.7242 0.833074 27.2473 0.833074 26.75V4.25C0.833074 3.25544 1.22816 2.30161 1.93142 1.59835C2.63468 0.895088 3.58851 0.5 4.58307 0.5H42.0831C43.0776 0.5 44.0315 0.895088 44.7347 1.59835C45.438 2.30161 45.8331 3.25544 45.8331 4.25ZM22.7846 29.1734C22.6105 28.9991 22.4037 28.8608 22.1761 28.7664C21.9485 28.6721 21.7045 28.6235 21.4581 28.6235C21.2117 28.6235 20.9677 28.6721 20.7401 28.7664C20.5124 28.8608 20.3056 28.9991 20.1315 29.1734L8.33307 40.9742L4.03464 36.6734C3.86043 36.4992 3.65362 36.361 3.426 36.2668C3.19839 36.1725 2.95444 36.124 2.70807 36.124C2.46171 36.124 2.21775 36.1725 1.99014 36.2668C1.76253 36.361 1.55572 36.4992 1.38151 36.6734C1.2073 36.8476 1.06912 37.0545 0.974837 37.2821C0.880557 37.5097 0.832031 37.7536 0.832031 38C0.832031 38.2464 0.880557 38.4903 0.974837 38.7179C1.06912 38.9455 1.2073 39.1524 1.38151 39.3266L7.00651 44.9516C7.18065 45.1259 7.38744 45.2642 7.61506 45.3586C7.84268 45.4529 8.08667 45.5015 8.33307 45.5015C8.57948 45.5015 8.82347 45.4529 9.05109 45.3586C9.27871 45.2642 9.4855 45.1259 9.65964 44.9516L22.7846 31.8266C22.959 31.6524 23.0973 31.4456 23.1916 31.218C23.286 30.9904 23.3345 30.7464 23.3345 30.5C23.3345 30.2536 23.286 30.0096 23.1916 29.782C23.0973 29.5544 22.959 29.3476 22.7846 29.1734Z" fill="#8AB4F8"/>
</svg>
